<?xml version="1.0" encoding="iso-8859-1"?>
<!-- Generator: Adobe Illustrator 19.0.0, SVG Export Plug-In . SVG Version: 6.00 Build 0)  -->
<svg version="1.1" id="Capa_1" xmlns="http://www.w3.org/2000/svg" xmlns:xlink="http://www.w3.org/1999/xlink" x="0px" y="0px"
	 viewBox="0 0 511.997 511.997" style="enable-background:new 0 0 511.997 511.997;" xml:space="preserve">
<path style="fill:#72BE4F;" d="M503.603,201.719c-1.706-2.484-3.736-4.188-12.208-4.833c-2.219-0.17-9.556-0.411-21.899-0.411
	c-32.442,0-54.485,9.842-65.769,29.273c3.109-19.548-15.941-29.331-57.201-29.331c-48.437,0-78.683,19.505-90.727,58.511
	c-4.48,14.507-4.936,26.387-1.416,35.672l-11.433,0.769c-21.294,1.631-52.663,3.834-60.868-7.63
	c-3.813-5.339-3.439-15.253,1.014-29.709c7.396-23.948,25.711-34.727,54.98-34.727c15.171-0.031,29.944,1.595,29.952,1.595v-0.006
	c2.034-0.127,2.935-2.244,2.708-3.999l-0.294-2.289l-1.038-8.049c-0.686-5.288-4.624-8.427-11.816-9.398
	c-6.574-0.444-11.468-0.738-18.667-0.738c-33.047,0-63.273,9.263-80.382,37.684c5.537-25.123-12.15-37.684-53.125-37.684
	c-22.773,0-39.105,0.641-49.009,1.934c-7.593,0.943-12.222,4.094-13.899,9.426l-3.242,10.342c-0.591,1.895,0.322,2.834,2.752,2.834
	l0.073-0.012c1.8-0.228,8.733-0.908,20.573-1.858c25.502-2.038,70.363-7.104,63.424,15.048c-0.77,2.499-2.485,4.048-5.114,4.648
	c-21.325,3.532-38.255,6.083-50.778,7.626c-35.237,4.484-55.594,15.452-61.077,32.94c-7.52,24.03,11.326,36.05,56.512,36.05
	c22.539,0,41.459-1.321,56.753-3.89c8.812-1.478,13.278-3.736,15.049-9.412l8.403-26.786c-0.875,26.767,17.901,40.247,56.357,40.247
	c16.65,0,32.438-0.549,39.889-1.843c7.885-1.366,11.655-3.08,13.396-9.03l1.706-8.444c8.192,12.773,26.17,19.16,53.923,19.16
	c29.269,0,46.338-0.822,51.209-2.454c4.079-1.297,6.599-3.403,7.497-6.331c0,0-0.224,0.209,3.863-13.052
	c0.612-1.975-0.304-2.92-2.707-2.836l-18.736,0.898c-12.614,0.688-44.951,2.625-56.778-1.681c-7.4-2.846-10.921-8.52-10.586-17.061
	l59.341-7.608c26.597-3.399,44.392-11.585,53.404-24.558l-20.107,70.025c-0.857,2.961,1.016,4.469,4.375,4.469h24.556
	c4.291,0,5.824-2.215,6.358-4.071l21.706-75.586c2.856-9.947,12.006-14.784,27.965-14.784c14.406,0,25.265,0.127,32.212,0.382
	c2.721,0.18,4.614-1.201,5.561-3.761l3.814-10.379C504.779,205.001,504.635,203.225,503.603,201.719z M107.74,292.655
	c-7.673,1.2-18.684,1.802-33.07,1.802c-24.958,0-35.876-5.035-32.714-15.113c2.271-7.229,8.808-11.579,19.673-13.042l56.776-7.626
	L107.74,292.655z M370.166,231.415c-2.388,7.75-13.5,13.052-33.305,15.9l-47.299,6.714l1.198-3.872
	c3.915-12.74,9.493-21.428,16.683-26.037c7.187-4.602,18.895-6.919,35.116-6.919C363.892,217.2,373.088,221.951,370.166,231.415z"/>
<g>
	<path style="fill:#66AF3F;" d="M42.019,220.953l0.073-0.012c1.611-0.204,7.346-0.771,17.018-1.568
		c-0.043-0.357,0.009-0.774,0.158-1.253l3.242-10.342c1.677-5.333,6.305-8.483,13.899-9.426c7.698-1.005,19.3-1.614,34.774-1.836
		c-1.873-0.059-3.784-0.097-5.766-0.097c-22.773,0-39.105,0.641-49.009,1.934c-7.593,0.943-12.222,4.094-13.899,9.426l-3.242,10.342
		C38.676,220.014,39.589,220.953,42.019,220.953z"/>
	<path style="fill:#66AF3F;" d="M325.756,315.314c0.019,0,0.038,0,0.056,0c0.009,0,0.017,0,0.026,0
		c-24.768-0.774-40.991-7.133-48.653-19.078c-2.306-4.638-9.506-15.011-1.385-41.307c11.264-36.478,38.45-55.897,81.542-58.261
		c-0.008,0-0.016-0.001-0.023-0.001c-3-0.145-7.043-0.249-10.793-0.249c-18.357,0-37.195,2.842-53.303,11.319v-0.021
		c-7.281,3.845-13.641,8.68-19.089,14.49v0.015c-8.775,9.372-14.562,20.494-18.335,32.709c-4.48,14.507-4.936,26.387-1.416,35.672
		c2.354,4.627,5.462,14.505,23.981,20.53c0.001-0.003,0.002-0.005,0.003-0.008c10.172,3.309,21.998,4.272,32.74,4.272
		C315.789,315.394,321.084,315.37,325.756,315.314z"/>
	<path style="fill:#66AF3F;" d="M370.166,231.415c-2.165,7.025-11.523,12.032-28.001,15.03l0.021,0.008
		c0,0,46.306-5.889,48.432-17.141c0.97-8.062-8.371-12.112-28.06-12.112c-3.765,0-7.275,0.13-10.555,0.38
		C366.559,218.874,372.613,223.492,370.166,231.415z"/>
	<path style="fill:#66AF3F;" d="M397.953,313.907c-0.672-0.785-0.826-1.849-0.444-3.171l20.107-70.025
		c3.474-12.098,6.113-14.963,6.113-14.963c10.56-18.182,30.54-27.965,59.642-29.15c-0.006,0-0.012,0-0.019,0
		c-0.402-0.008-0.82-0.016-1.249-0.024c-19.064-0.314-36.935-0.362-54.243,7.639c-0.001-0.002-0.003-0.004-0.005-0.006
		c-10.568,4.885-18.629,12.071-24.128,21.54l-6.113,14.963l-20.107,70.025c-0.857,2.961,1.016,4.469,4.375,4.469
		c7.566,0,12.597,0,20.001,0C399.987,315.205,398.704,314.784,397.953,313.907z"/>
	<path style="fill:#66AF3F;" d="M134.314,256.626l-15.908,2.05l-10.666,33.979l17.969-2.311c0,0,2.983-0.708,3.86-3.492l0,0
		l8.215-26.077C138.489,258.539,136.638,256.327,134.314,256.626z"/>
	<path style="fill:#66AF3F;" d="M28.065,293.732l-0.012,0.001c0,0-0.014-0.076-0.036-0.221c-0.76-3.439-0.634-7.281,0.386-11.532
		c1.99-10.867,9.441-26.509,34.719-34.552c-30.893,5.008-48.897,15.635-54.001,31.915c-7.52,24.03,11.326,36.05,56.512,36.05
		c4.148,0,8.171-0.046,12.075-0.135C47.71,314.218,31.168,307.038,28.065,293.732z"/>
	<path style="fill:#66AF3F;" d="M126.089,234.13c-0.77,2.499-2.485,4.048-5.114,4.648c0,0,24.621-0.756,25.781-9.882
		c-0.722-7.793-10.436-11.698-29.173-11.698c-3.143,0-6.975,0.109-11.476,0.322C122.478,218.858,129.138,224.393,126.089,234.13z"/>
	<path style="fill:#66AF3F;" d="M165.838,275.306c5.558-49.713,34.129-75.834,83.912-78.625c-3.734-0.184-7.243-0.264-10.829-0.264
		c-18.254,0-37.247,2.851-53.324,11.663v-0.007c-11.32,6.201-20.343,14.874-27.058,26.028l-12.704,41.204
		c-0.398,12.181,3.287,21.599,11.032,28.258c0,0.001-0.001,0.001-0.001,0.002c0.897,0.785,2.445,1.971,3.884,2.898
		c0.001-0.003,0.002-0.007,0.003-0.01c9.385,6.053,23.188,9.099,41.439,9.099c4.677,0,9.278-0.045,13.655-0.136
		C181.681,313.974,165.014,300.554,165.838,275.306z"/>
</g>
<path d="M342.558,209.716c-39.802,0-50.909,12.195-60.161,42.114c-1.622,5.247,2.775,10.414,8.219,9.643l47.314-6.716
	c23.482-3.377,36.004-10.086,39.404-21.112c2.073-6.715,0.051-11.457-2.012-14.251C370.45,212.79,360.04,209.716,342.558,209.716z
	 M363.001,229.219C363,229.22,363,229.221,363,229.222c-0.365,1.183-3.391,7.26-27.191,10.684l-35.156,4.99
	c5.52-12.8,11.901-20.179,41.906-20.179c16.436,0,20.155,3.041,20.637,3.521C363.192,228.381,363.163,228.693,363.001,229.219z"/>
<path d="M65.633,322.911c22.706,0,42.218-1.344,57.993-3.994c8.999-1.509,17.768-4.319,20.965-14.564l0.759-2.421
	c1.184,1.724,2.516,3.351,3.995,4.879c10.589,10.94,27.875,16.258,52.849,16.258c41.098,0,53.281-1.939,58.803-12.129
	c11.105,8.034,27.661,11.971,50.109,11.971c46.042,0,53.738-1.509,59.902-5.934c2.157,4.05,6.289,5.745,10.873,5.745h24.556
	c6.783,0,11.855-3.55,13.568-9.5l8.439-29.391c1.143-3.981-1.157-8.136-5.139-9.279c-3.984-1.145-8.135,1.157-9.279,5.139
	l-8.049,28.03h-19.797l18.643-64.924c1.013-3.527-0.676-7.27-3.991-8.845c-3.319-1.576-7.285-0.518-9.378,2.496
	c-7.708,11.096-23.923,18.295-48.199,21.398l-59.341,7.607c-3.632,0.465-6.396,3.486-6.54,7.145
	c-0.49,12.516,5.974,21.042,15.516,24.403c14.864,5.413,52.63,2.463,71.399,1.564c-1.747,5.668-1.646,5.859-1.646,5.859
	c-0.162,0.527-2.19,1.242-2.71,1.419c-1.446,0.484-9.24,2.065-48.826,2.065c-42.182,0-46.292-15.153-49.227-17.508
	c-0.094-3.297-5.861-10.75,1.085-33.246c11.059-35.814,38.391-53.223,83.561-53.223c31.69,0,43.335,5.85,47.523,10.758
	c1.391,1.629,3.14,4.428,2.27,9.895c-1.297,8.154,9.738,12.102,13.894,4.945c9.843-16.947,29.788-25.539,59.283-25.539
	c16.54,0,24.261,0.237,27.184,1.354l-3.043,8.276c-7.025-0.227-17.499-0.342-31.17-0.342c-19.487,0-31.322,6.801-35.175,20.214
	l-3.215,11.195c-1.143,3.981,1.157,8.136,5.139,9.279c3.979,1.145,8.136-1.157,9.279-5.138l3.215-11.195
	c0.734-2.558,2.686-9.354,20.756-9.354c14.302,0,25.012,0.125,31.84,0.374c6.131,0.375,10.965-3.233,12.973-8.665
	c3.716-10.109,7.078-15.818,2.507-22.498c-5.982-8.715-15.496-8.5-40.29-8.5c-27.033,0-47.64,6.541-61.51,19.483
	c-0.731-1.229-1.574-2.405-2.526-3.521c-9.201-10.78-28.479-16.02-58.934-16.02c-29.089,0-52.223,6.747-69.238,20.134l-0.446-3.462
	c-1.276-9.853-9.682-15.304-18.747-15.917c-3.934-0.266-7.023-0.456-10.275-0.584c-4.158-0.161-7.627,3.06-7.789,7.199
	c-0.163,4.139,3.06,7.626,7.199,7.789c16.521,0.65,14.414,0.941,15.426,8.79c-35.276-2.892-73.945-2.432-86.728,38.954
	c-16.017,51.988,19.488,50.258,73.152,46.652c-1.221,6.045-0.154,6.437-8.28,7.845c-6.245,1.085-20.676,1.733-38.605,1.733
	c-26.633,0-49.727-5.985-48.861-32.502c0.283-8.665-12.054-10.776-14.653-2.49l-8.406,26.796c-0.42,1.345-0.896,2.869-9.132,4.25
	c-18.996,3.191-90.771,9.879-103.925-8.024c-0.95-1.292-3.84-5.225-0.939-14.495c4.499-14.348,22.959-23.682,54.838-27.739
	c19.666-2.424,50.528-7.528,51.528-7.758c5.278-1.204,9.047-4.667,10.605-9.72c2.446-7.81,0.21-13.191-2.096-16.33
	c-10.109-13.758-39.426-11.217-82.335-7.31c1.083-3.457,1.036-6.008,8.562-6.943c9.514-1.242,25.675-1.871,48.039-1.871
	c28.218,0,39.127,6.204,43.309,11.409c3.313,4.122,4.127,9.736,2.491,17.161c-0.791,3.588,1.134,7.22,4.546,8.581
	c3.414,1.36,7.309,0.049,9.204-3.099c10.32-17.144,26.334-27.568,48.958-31.869c4.069-0.773,6.741-4.7,5.967-8.769
	c-0.773-4.069-4.701-6.742-8.769-5.968c-18.839,3.581-34.273,11.152-46.108,22.587c-8.082-21.409-36.764-25.034-59.599-25.034
	c-23.333,0-39.682,0.653-49.934,1.991c-13.358,1.659-18.32,8.865-20.131,14.626c-3.189,10.174-5.453,14.326-2.01,19.007
	c2.357,3.203,6.538,4.271,9.747,3.833c3.55-0.443,38.283-3.674,54.496-3.674c17.861,0,21.162,3.791,21.479,4.223
	c0.396,0.54,0.249,1.594-0.018,2.572c-21.256,3.516-37.541,5.958-49.794,7.468c-38.779,4.935-60.788,17.41-67.289,38.139
	c-3.43,10.961-2.365,20.335,3.166,27.861C13.994,317.046,33.785,322.911,65.633,322.911z M293.484,279.349
	c54.968-7.047,71.482-7.812,90.263-17.505l-6.589,22.948c-1.521-0.956-3.618-1.655-6.547-1.548
	C323.567,285.5,297.969,287.351,293.484,279.349z M248.633,252.73c-3.597,11.648-4.807,22.029-3.624,30.999
	c-9.24,0.621-50.47,4.537-56.823-4.334c-0.828-1.159-3.124-6.252,2.077-23.135c9.562-30.957,37.738-31.046,69.934-28.525
	C255.378,235.043,251.521,243.376,248.633,252.73z"/>
<path d="M117.408,251.258l-56.779,7.626c-24.75,3.334-31.229,22.457-23.808,32.562c5.346,7.28,17.02,10.527,37.85,10.527
	c14.893,0,26.089-0.619,34.229-1.892c2.818-0.44,5.142-2.442,5.997-5.164l10.667-33.98c0.768-2.447,0.232-5.117-1.42-7.078
	C122.49,251.897,119.951,250.917,117.408,251.258z M102.019,285.853c-6.937,0.744-16.106,1.12-27.348,1.12
	c-22.401,0-25.742-4.337-25.742-4.337c-0.16-1.02,0.9-7.158,13.701-8.883l45.09-6.056L102.019,285.853z"/>
<g>
</g>
<g>
</g>
<g>
</g>
<g>
</g>
<g>
</g>
<g>
</g>
<g>
</g>
<g>
</g>
<g>
</g>
<g>
</g>
<g>
</g>
<g>
</g>
<g>
</g>
<g>
</g>
<g>
</g>
</svg>
