<?xml version="1.0" encoding="iso-8859-1"?>
<!-- Generator: Adobe Illustrator 19.0.0, SVG Export Plug-In . SVG Version: 6.00 Build 0)  -->
<svg version="1.1" id="Capa_1" xmlns="http://www.w3.org/2000/svg" xmlns:xlink="http://www.w3.org/1999/xlink" x="0px" y="0px"
	 viewBox="0 0 512.018 512.018" style="enable-background:new 0 0 512.018 512.018;" xml:space="preserve">
<g>
	<path style="fill:#009688;" d="M319.207,241.259c-1.649-3.989-5.539-6.591-9.856-6.592H170.684V96
		c0.011-5.891-4.757-10.675-10.648-10.686c-2.84-0.005-5.565,1.123-7.571,3.134l-64,64c-1.999,2.004-3.12,4.721-3.115,7.552v149.333
		c0,5.891,4.776,10.667,10.667,10.667h149.333c2.831,0.005,5.548-1.115,7.552-3.115l64-64
		C319.952,249.832,320.861,245.244,319.207,241.259z"/>
	<path style="fill:#009688;" d="M394.684,0H117.351c-5.891-0.011-10.675,4.757-10.686,10.648c-0.005,2.84,1.123,5.565,3.134,7.571
		l64,64c2.004,1.999,4.721,3.12,7.552,3.115h138.667V224c-0.005,2.831,1.115,5.548,3.115,7.552l64,64
		c4.16,4.171,10.914,4.179,15.085,0.019c2.011-2.006,3.139-4.731,3.134-7.571V10.667C405.351,4.776,400.575,0,394.684,0z"/>
</g>
<path style="fill:#37474F;" d="M160.017,512c-4.037,0-7.728-2.279-9.536-5.888L96.017,397.184L41.553,506.112
	c-2.633,5.272-9.042,7.412-14.315,4.779s-7.412-9.042-4.779-14.315l64-128c3.144-5.272,9.966-6.998,15.239-3.855
	c1.585,0.945,2.91,2.27,3.855,3.855l64,128c2.627,5.273,0.483,11.677-4.79,14.304C163.289,511.615,161.665,511.998,160.017,512z"/>
<path id="SVGCleanerId_0" d="M138.684,490.667H53.351c-5.891,0-10.667-4.776-10.667-10.667s4.776-10.667,10.667-10.667h85.333
	c5.891,0,10.667,4.776,10.667,10.667S144.575,490.667,138.684,490.667z"/>
<g>
	<path style="fill:#37474F;" d="M330.684,512c-5.891,0-10.667-4.776-10.667-10.667v-96l-44.8,59.733
		c-3.896,4.713-10.875,5.375-15.588,1.478c-0.538-0.445-1.033-0.94-1.478-1.478l-44.8-59.733v96c0,5.891-4.776,10.667-10.667,10.667
		c-5.891,0-10.667-4.776-10.667-10.667v-128c0-5.891,4.776-10.667,10.667-10.667c3.357,0,6.519,1.581,8.533,4.267l55.467,73.963
		l55.467-73.963c2.781-3.647,7.561-5.143,11.925-3.733c4.353,1.46,7.283,5.542,7.275,10.133v128
		C341.351,507.224,336.575,512,330.684,512z"/>
	<path style="fill:#37474F;" d="M416.017,512h-42.667c-5.891,0-10.667-4.776-10.667-10.667v-128c0-5.891,4.776-10.667,10.667-10.667
		h42.667c41.237,0,74.667,33.429,74.667,74.667S457.255,512,416.017,512z M384.017,490.667h32c29.455,0,53.333-23.878,53.333-53.333
		S445.473,384,416.017,384h-32V490.667z"/>
</g>
<path d="M245.351,320H96.017c-5.891,0-10.667-4.776-10.667-10.667V160c-0.005-2.831,1.115-5.548,3.115-7.552l64-64
	c4.16-4.171,10.914-4.179,15.085-0.019c2.011,2.006,3.139,4.731,3.134,7.571v138.667h138.667
	c5.891-0.011,10.675,4.757,10.686,10.648c0.005,2.84-1.123,5.565-3.134,7.571l-64,64C250.899,318.885,248.182,320.005,245.351,320z
	 M106.684,298.667h134.251L283.601,256H160.017c-5.891,0-10.667-4.776-10.667-10.667V121.749l-42.667,42.667V298.667z"/>
<path d="M394.684,298.667c-2.831,0.005-5.548-1.115-7.552-3.115l-64-64c-1.999-2.004-3.12-4.721-3.115-7.552V85.333H181.351
	c-2.831,0.005-5.548-1.115-7.552-3.115l-64-64c-4.171-4.16-4.179-10.914-0.019-15.085c2.006-2.011,4.731-3.139,7.571-3.134h277.333
	c5.891,0,10.667,4.776,10.667,10.667V288C405.351,293.891,400.575,298.667,394.684,298.667z M341.351,219.584l42.667,42.667V21.333
	H143.1L185.767,64h144.917c5.891,0,10.667,4.776,10.667,10.667V219.584z"/>
<path d="M160.017,512c-4.044,0.008-7.745-2.272-9.557-5.888L96.017,397.184L41.553,506.112c-2.633,5.272-9.042,7.412-14.315,4.779
	s-7.412-9.042-4.779-14.315l64-128c3.144-5.272,9.966-6.998,15.239-3.855c1.585,0.945,2.91,2.27,3.855,3.855l64,128
	c2.627,5.273,0.483,11.677-4.79,14.304C163.289,511.615,161.665,511.998,160.017,512z"/>
<g>
	<path id="SVGCleanerId_0_1_" d="M138.684,490.667H53.351c-5.891,0-10.667-4.776-10.667-10.667s4.776-10.667,10.667-10.667h85.333
		c5.891,0,10.667,4.776,10.667,10.667S144.575,490.667,138.684,490.667z"/>
</g>
<path d="M330.684,512c-5.891,0-10.667-4.776-10.667-10.667v-96l-44.8,59.733c-3.878,4.713-10.842,5.39-15.555,1.512
	c-0.552-0.454-1.058-0.96-1.512-1.512l-44.8-59.733v96c0,5.891-4.776,10.667-10.667,10.667c-5.891,0-10.667-4.776-10.667-10.667
	v-128c0-5.891,4.776-10.667,10.667-10.667c3.357,0,6.519,1.581,8.533,4.267l55.467,73.941l55.467-73.941
	c3.535-4.713,10.221-5.668,14.933-2.133c2.686,2.014,4.267,5.176,4.267,8.533v128C341.351,507.224,336.575,512,330.684,512z"/>
<path d="M416.017,512h-42.667c-5.891,0-10.667-4.776-10.667-10.667v-128c0-5.891,4.776-10.667,10.667-10.667h42.667
	c41.237,0,74.667,33.429,74.667,74.667S457.255,512,416.017,512z M384.017,490.667h32c29.455,0,53.333-23.878,53.333-53.333
	S445.473,384,416.017,384h-32V490.667z"/>
<g>
</g>
<g>
</g>
<g>
</g>
<g>
</g>
<g>
</g>
<g>
</g>
<g>
</g>
<g>
</g>
<g>
</g>
<g>
</g>
<g>
</g>
<g>
</g>
<g>
</g>
<g>
</g>
<g>
</g>
</svg>
