<?xml version="1.0" encoding="iso-8859-1"?>
<!-- Generator: Adobe Illustrator 19.0.0, SVG Export Plug-In . SVG Version: 6.00 Build 0)  -->
<svg version="1.1" id="Capa_1" xmlns="http://www.w3.org/2000/svg" xmlns:xlink="http://www.w3.org/1999/xlink" x="0px" y="0px"
	 viewBox="0 0 512.001 512.001" style="enable-background:new 0 0 512.001 512.001;" xml:space="preserve">
<g>
	<path style="fill:#0964AF;" d="M54.556,238.473l-46.48,71.965c-0.427,0.661,0.048,1.533,0.835,1.533H39.22
		c0.336,0,0.65-0.17,0.833-0.452l44.773-68.939c0.404-0.622,0.009-1.451-0.729-1.529l-28.602-3.026
		C55.123,237.984,54.76,238.158,54.556,238.473z"/>
	<path style="fill:#0964AF;" d="M62.776,227.39c-0.778,0-1.254-0.853-0.846-1.515c2.761-4.476,10.842-17.512,13.147-20.506
		c2.675-3.666,6.22-5.229,9.946-5.229h43.325c0.549,0,0.994,0.445,0.994,0.994v18.034c0,1.089,1.501,1.391,1.908,0.382
		c1.176-2.918,2.871-6.326,5.018-8.544c4.137-4.295,9.66-10.245,22.267-11.042c0.026-0.002,0.052-0.002,0.078-0.002h91.871
		c0.549,0,0.994,0.445,0.994,0.994v25.442c0,0.549-0.445,0.994-0.994,0.994H62.776V227.39z"/>
	<path style="fill:#0964AF;" d="M504.085,226.329v-25.464c0-0.549-0.445-0.994-0.994-0.994h-98.369
		c-0.026,0-0.053,0.001-0.078,0.002c-14.236,0.902-24.955,9.625-29.136,25.093c-0.023,0.084-0.033,0.167-0.033,0.253v1.087
		c0,0.549,0.445,0.993,0.993,0.994l126.622,0.021C503.64,227.323,504.085,226.878,504.085,226.329z"/>
	<path style="fill:#0964AF;" d="M283.108,227.301H257.32c-0.549,0-0.994-0.445-0.994-0.994v-25.31c0-0.549,0.445-0.994,0.994-0.994
		h25.789c0.549,0,0.994,0.445,0.994,0.994v25.31C284.102,226.856,283.657,227.301,283.108,227.301z"/>
	<path style="fill:#0964AF;" d="M374.28,227.301h-25.765c-0.549,0-0.994-0.445-0.994-0.994v-25.31c0-0.549,0.445-0.994,0.994-0.994
		h25.765c0.549,0,0.994,0.445,0.994,0.994v25.31C375.274,226.856,374.829,227.301,374.28,227.301z"/>
	<path style="fill:#0964AF;" d="M374.339,246.099l-25.299-1.496c-0.571-0.034-1.052,0.42-1.052,0.992v30.615
		c0,0-0.082,9.122-8.995,9.122h-46.841c-0.037,0-0.068-0.001-0.104-0.005c-0.694-0.075-7.885-1.043-7.885-9.033v-35.126
		c0-0.521-0.403-0.954-0.923-0.991l-25.574-1.827c-0.575-0.041-1.064,0.414-1.064,0.991v47.392c0,0.069,0.007,0.139,0.02,0.206
		c4.495,23.201,25.69,24.988,25.69,24.988s2.044,0.136,2.486,0.174c0.027,0.002,0.047,0.003,0.075,0.003h63.252
		c0.032,0,0.059-0.001,0.09-0.004c1.241-0.113,27.061-2.773,27.061-27.901v-37.107C375.274,246.565,374.864,246.13,374.339,246.099z
		"/>
	<path style="fill:#0964AF;" d="M102.141,311.987h128.811c0.071,0,0.143-0.007,0.212-0.021
		c22.528-4.533,24.886-24.797,24.886-24.797c1.005-5.713,0.505-10.393,0.448-10.883c-0.003-0.028-0.006-0.049-0.011-0.077
		c-0.718-4.136-8.545-22.024-25.478-23.583c-9.403-0.865-87.77-7.033-98.927-7.911c-0.662-0.052-1.192,0.551-1.042,1.198
		c2.919,12.623,11.909,20.112,24.397,22.348c0.03,0.005,0.049,0.008,0.078,0.011c2.93,0.27,69.418,5.713,69.418,5.713
		c2.136,0.111,6.184,0.647,6.136,5.887c0,0.632-0.584,5.255-5.731,5.255h-96.186c-0.549,0-0.994-0.445-0.994-0.994v-38.826
		c0-0.521-0.402-0.953-0.922-0.991l-25.024-1.813c-0.576-0.042-1.065,0.414-1.065,0.991v67.498
		C101.147,311.542,101.592,311.987,102.141,311.987z"/>
	<path style="fill:#0964AF;" d="M375.533,285.954c0.001-0.548,0.446-0.991,0.994-0.991h95.518c1.747,0,4.299-0.987,4.732-1.403
		c0.952-0.914,1.706-2.488,1.706-4.004c0-5.23-4.357-5.457-6.543-5.568c0,0-67.263-5.555-70.135-5.785
		c-0.028-0.002-0.046-0.005-0.074-0.009c-10.705-1.747-20.419-8.876-24.212-20.571c-0.217-0.668,0.299-1.351,1-1.31
		c11.585,0.678,89.954,5.275,99.273,6.137c17.004,1.611,24.969,18.257,25.686,23.797c0,0,0.729,5.006-0.154,11.154
		c0,0-3.519,23.379-28.418,24.827c-0.025,0.001-0.051,0.002-0.077,0.002h-98.355c-0.55,0-0.995-0.446-0.994-0.996L375.533,285.954z"
		/>
</g>
<g>
	<path style="fill:#004F9C;" d="M28.077,310.438l45.532-70.498l-18.114-1.917c-0.373-0.04-0.736,0.134-0.939,0.449l-46.48,71.966
		c-0.427,0.661,0.048,1.532,0.835,1.532h20.001C28.125,311.971,27.65,311.099,28.077,310.438z"/>
	<path style="fill:#004F9C;" d="M395.477,226.198c0-0.09,0.01-0.176,0.033-0.263c4.386-16.854,15.642-25.172,29.136-26.06
		c0.026-0.002,0.052-0.002,0.078-0.002h-20.001c-0.026,0-0.053,0.001-0.078,0.002c-14.235,0.902-24.955,9.625-29.136,25.093
		c-0.023,0.084-0.033,0.167-0.033,0.253v1.087c0,0.549,0.445,0.993,0.993,0.994l19.008,0.003V226.198z"/>
	<path style="fill:#004F9C;" d="M276.327,226.308v-25.311c0-0.549,0.445-0.993,0.994-0.993H257.32c-0.549,0-0.994,0.445-0.994,0.993
		v25.311c0,0.549,0.445,0.993,0.994,0.993h20.001C276.772,227.301,276.327,226.856,276.327,226.308z"/>
	<path style="fill:#004F9C;" d="M367.524,226.308v-25.311c0-0.549,0.445-0.993,0.994-0.993h-20.001
		c-0.549,0-0.994,0.445-0.994,0.993v25.311c0,0.549,0.445,0.993,0.994,0.993h20.001
		C367.969,227.301,367.524,226.856,367.524,226.308z"/>
	<path style="fill:#004F9C;" d="M367.989,276.209v-30.486l-18.949-1.121c-0.571-0.034-1.052,0.42-1.052,0.992v30.615
		c0,0-0.083,9.123-8.995,9.123h20.001C367.907,285.331,367.989,276.209,367.989,276.209z"/>
	<path style="fill:#004F9C;" d="M302.312,311.925c0,0-21.193-1.787-25.69-24.988c-0.013-0.067-0.02-0.137-0.02-0.206v-47.03
		l-18.937-1.353c-0.575-0.041-1.064,0.415-1.064,0.991v47.392c0,0.069,0.007,0.139,0.02,0.206c4.495,23.2,25.69,24.988,25.69,24.988
		s2.044,0.136,2.486,0.174c0.027,0.002,0.047,0.003,0.075,0.003h20.001c-0.027,0-0.047-0.001-0.075-0.003
		C304.356,312.062,302.312,311.925,302.312,311.925z"/>
	<path style="fill:#004F9C;" d="M121.149,310.994v-67.117l-18.936-1.372c-0.575-0.042-1.065,0.414-1.065,0.991v67.498
		c0,0.549,0.445,0.993,0.994,0.993h20.001C121.594,311.987,121.149,311.542,121.149,310.994z"/>
	<path style="fill:#004F9C;" d="M395.479,311.231l0.055-25.278c0.001-0.548,0.446-0.991,0.994-0.991h-20.001
		c-0.548,0-0.992,0.443-0.994,0.991l-0.055,25.278c-0.001,0.55,0.444,0.996,0.994,0.996h20.001
		C395.923,312.226,395.478,311.78,395.479,311.231z"/>
	<path style="fill:#004F9C;" d="M158.614,199.873c-0.026,0-0.052,0.001-0.078,0.002c-3.604,0.228-6.613,0.886-9.192,1.796v0.102
		c-6.439,2.273-10.123,6.166-13.075,9.232c-2.146,2.217-3.842,5.625-5.018,8.544c-0.407,1.01-1.907,0.707-1.908-0.381l0.011,8.223
		h21.522c-2.151-9.897,8.465-26.303,27.661-27.516c0.026-0.002,0.052-0.002,0.078-0.002L158.614,199.873L158.614,199.873z"/>
	<path style="fill:#004F9C;" d="M75.078,205.28c-2.305,2.994-10.387,16.03-13.147,20.506c-0.408,0.662,0.068,1.515,0.846,1.515
		h20.001c-0.778,0-1.254-0.853-0.846-1.515c2.761-4.476,10.842-17.512,13.147-20.506c2.675-3.666,6.22-5.229,9.946-5.229H85.023
		C81.298,200.051,77.753,201.614,75.078,205.28z"/>
	<path style="fill:#004F9C;" d="M155.437,268.262c0.03,0.005,0.049,0.008,0.079,0.011c1.01,0.093,9.566,0.8,20.346,1.687
		c-18.774-8.644-21.883-23.519-21.883-23.519l0,0c-10.532-0.831-18.801-1.482-21.896-1.725c-0.662-0.052-1.192,0.551-1.042,1.198
		C133.965,258.565,142.977,266.028,155.437,268.262z"/>
	<path style="fill:#004F9C;" d="M401.73,268.192c0.028,0.005,0.046,0.007,0.074,0.01c0.852,0.068,7.368,0.605,16.114,1.326
		c-16.391-8.82-19.51-22.046-19.51-22.046l0,0c-9.507-0.563-16.911-0.997-19.891-1.171c-0.701-0.041-1.217,0.643-1,1.31
		C381.285,259.237,390.96,266.437,401.73,268.192z"/>
</g>
<path d="M7.501,319.488h32.673c2.54,0,4.906-1.285,6.29-3.415l45.949-70.751c1.421-2.188,1.603-4.957,0.48-7.312
	c-0.644-1.352-1.673-2.444-2.917-3.191h160.4c-0.555,1.062-0.86,2.248-0.86,3.47v13.979c-4.651-3.671-10.428-6.451-17.403-7.093
	c-5.558-0.512-100.275-8.131-101.593-8.017c-0.452-0.121-0.921-0.201-1.403-0.236c-28.63-2.074-29.476-2.93-32.662,0.032
	c-3.294,3.064-2.392,0.139-2.392,75.052c0,4.142,3.357,7.5,7.5,7.5c138.446,0,130.3,0.07,131.372-0.144
	c11.408-2.264,19.003-8.145,23.834-14.532c7.602,10.157,18.789,14.036,25.326,14.588c0.045,0.003,0.086,0.007,0.131,0.01
	c4.356,0.288-6.053,0.194,66.357,0.194c3.648,0,12.418-1.842,19.835-6.809c0.135,1.778,0.895,3.458,2.164,4.73
	c2.929,2.937,1.11,2.203,51.949,2.203c4.143,0,7.5-3.358,7.5-7.5c0-4.142-3.357-7.5-7.5-7.5h-39.123l0.026-12.264h89.026
	c17.573,0,19.552-24.888,0.403-25.961c-3.914-0.323-64.225-5.303-69.739-5.753c-2.196-0.403-7.896-2.02-11.47-5.422l-0.668-0.621
	c-0.067-0.062-0.134-0.124-0.201-0.186c25.723,1.517,79.264,4.705,86.711,5.393c12.508,1.186,18.541,14.1,18.967,17.383
	c1.938,13.568-5.884,26.441-21.409,27.43h-17.521c-4.143,0-7.5,3.358-7.5,7.5c0,4.142,3.357,7.5,7.5,7.5
	c0.328,0,17.847,0.007,18.174-0.012c24.609-1.407,38.696-22.506,35.613-44.488c-1.277-9.629-12.062-28.319-32.426-30.249
	c-10.671-0.987-87.706-5.42-130.05-7.924c-4.287-0.258-7.942,3.159-7.942,7.487c0,34.588,0.609,33.29-1.494,33.29
	c-50.571,0-47.33,0.651-47.33-1.537v-36.051c0-2.76-1.5-5.187-3.749-6.489c2.205-1.306,3.688-3.702,3.688-6.451v-27.297
	c0-4.142-3.357-7.5-7.5-7.5c-30.184,0-28.515-0.129-30.02,0.342c-1.766-0.655,0.485-0.474-37.645-0.474c-4.143,0-7.5,3.358-7.5,7.5
	c0,4.142,3.357,7.5,7.5,7.5h27.541v12.429H139.719c0.746-1.511,1.562-2.85,2.367-3.682l0.212-0.22
	c9.757-10.14,13.139-8.527,39.551-8.527c4.143,0,7.5-3.358,7.5-7.5c0-4.142-3.357-7.5-7.5-7.5c-18.904,0-31.906-2.231-44.592,7.741
	c0-4.32-3.449-7.563-7.5-7.563H85.438c-6.381,0-12.042,2.923-15.949,8.233c-3.029,3.979-13.301,20.691-14.469,22.595
	c-1.33,2.168-1.449,4.846-0.371,7.125c-2.279,0.2-4.378,1.418-5.647,3.385L1.2,307.918c-1.49,2.307-1.601,5.244-0.287,7.656
	S4.755,319.488,7.501,319.488z M136.074,267.468c7.563,6.198,17.403,8.014,18.571,8.213c0.181,0.031,0.363,0.055,0.546,0.072
	c0.919,0.087,10.792,0.902,22.826,1.892h-41.944V267.468z M249.515,282.152c-0.772,12.432-8.215,20.003-18.817,22.351H109.063
	v-53.996l12.011,0.87v33.768c0,4.142,3.357,7.5,7.5,7.5h97.18c16.692,0,18.478-25.061,0.108-26.127
	c-22.48-1.841-64.672-5.301-68.965-5.674c-2.249-0.432-8.441-2.197-12.032-5.609c-0.664-0.635-1.346-1.341-2.011-2.165
	c25.012,1.971,80.178,6.331,87.883,7.04c12.147,1.119,18.615,15.335,18.778,17.684L249.515,282.152L249.515,282.152z
	 M383.189,267.838c6.294,5.065,15.065,7.586,18.401,7.852c0.841,0.067,10.134,0.833,21.697,1.787h-40.099v-9.64H383.189z
	 M292.516,292.847h46.892c11.993,0,16.435-9.901,16.495-16.623v-23.711l12.285,0.727v30.974c0,17.503-17.05,20.091-19.964,20.404
	c-68.761,0-61.751,0.058-64.902-0.154c-0.799-0.084-15.284-1.858-18.805-18.362c0-54.202,0,10.832,0-39.758l12.561,0.897v29.068
	C277.077,288.071,286.952,292.847,292.516,292.847z M264.241,207.52h12.775v12.296h-12.775V207.52z M81.551,209.716
	c2.126-2.914,0.084-2.15,40.705-2.15v12.251H74.914C76.886,216.695,79.77,212.136,81.551,209.716z M59.101,245.919l14.07,1.489
	l-37.069,57.078H21.274L59.101,245.919z"/>
<path d="M504.5,192.387c-0.362,0-99.508-0.008-99.869,0.015c-10.187,0.636-16.833,4.223-21.441,7.889c0-4.797-3.645-7.772-7.5-7.772
	h-27.752c-4.143,0-7.5,3.358-7.5,7.5v27.297c0,4.142,3.357,7.5,7.5,7.5c72.476,0,134.777,0.022,156.563,0.022
	c4.139,0,7.5-3.358,7.5-7.5v-27.451C512,195.745,508.642,192.387,504.5,192.387z M368.188,219.817h-12.751v-12.296h12.751V219.817z
	 M496.999,219.837l-111.166-0.019c1.095-2.227,1.837-3.137,2.561-3.888c3.749-3.884,7.624-7.899,16.949-8.542h91.656V219.837z"/>
<g>
</g>
<g>
</g>
<g>
</g>
<g>
</g>
<g>
</g>
<g>
</g>
<g>
</g>
<g>
</g>
<g>
</g>
<g>
</g>
<g>
</g>
<g>
</g>
<g>
</g>
<g>
</g>
<g>
</g>
</svg>
