<svg height="512" viewBox="0 0 512 512" width="512" xmlns="http://www.w3.org/2000/svg"><g id="_06" data-name="06"><path d="m172 441.32h38.14a0 0 0 0 1 0 0v10.39a6.81 6.81 0 0 1 -6.81 6.81h-24.53a6.81 6.81 0 0 1 -6.81-6.81v-10.39a0 0 0 0 1 .01 0z" fill="#c52dea"/><path d="m301.86 441.32h38.14a0 0 0 0 1 0 0v10.39a6.81 6.81 0 0 1 -6.81 6.81h-24.52a6.81 6.81 0 0 1 -6.81-6.81v-10.39a0 0 0 0 1 0 0z" fill="#c52dea"/><rect fill="#8d00af" height="377.84" rx="19.45" width="206.91" x="152.54" y="63.47"/><circle cx="256" cy="375.71" fill="#c52dea" r="45.86"/><rect fill="#33db92" height="29.09" rx="5" width="10" x="251" y="340.63"/><path d="m256 405.86a30.15 30.15 0 0 1 -25-47.06 5 5 0 0 1 8.28 5.61 20.15 20.15 0 1 0 33.36 0 5 5 0 0 1 8.36-5.61 30.15 30.15 0 0 1 -25 47.06z" fill="#33db92"/><path d="m173.9 285.07h164.2v24.29h-164.2z" fill="#aa0dd1"/><path d="m359.46 82.92v180.68l-73.31-20v-180.13h53.85a19.45 19.45 0 0 1 19.46 19.45z" fill="#aa0dd1"/><g fill="#c52dea"><path d="m359.46 235.39-73.31-20v28.21l73.31 20z"/><path d="m359.46 178.97-73.31-20v28.21l73.31 20z"/><path d="m359.46 122.55-73.31-20v28.21l73.31 20z"/></g><path d="m152.54 82.92v180.68l73.31-20v-180.13h-53.85a19.45 19.45 0 0 0 -19.46 19.45z" fill="#aa0dd1"/><path d="m152.54 235.39 73.31-20v28.21l-73.31 20z" fill="#c52dea"/><path d="m152.54 178.97 73.31-20v28.21l-73.31 20z" fill="#c52dea"/><path d="m152.54 122.55 73.31-20v28.21l-73.31 20z" fill="#c52dea"/></g><g id="Line" fill="#211915"><path d="m203.33 461h-24.53a9.33 9.33 0 0 1 -9.31-9.31v-10.37a2.5 2.5 0 1 1 5 0v10.39a4.32 4.32 0 0 0 4.31 4.29h24.53a4.32 4.32 0 0 0 4.31-4.31v-10.37a2.5 2.5 0 0 1 5 0v10.39a9.33 9.33 0 0 1 -9.31 9.29z"/><path d="m333.2 461h-24.53a9.33 9.33 0 0 1 -9.31-9.31v-10.37a2.5 2.5 0 0 1 5 0v10.39a4.32 4.32 0 0 0 4.31 4.31h24.53a4.32 4.32 0 0 0 4.31-4.31v-10.39a2.5 2.5 0 1 1 5 0v10.39a9.33 9.33 0 0 1 -9.31 9.29z"/><path d="m152.54 343.13a2.5 2.5 0 0 1 -2.5-2.5v-257.71a22 22 0 0 1 22-22h167.96a22 22 0 0 1 16.2 7.15 2.5 2.5 0 0 1 -3.69 3.37 17 17 0 0 0 -12.51-5.44h-168a17 17 0 0 0 -17 17v257.63a2.5 2.5 0 0 1 -2.46 2.5z"/><path d="m340 443.82h-168a22 22 0 0 1 -22-21.95v-26.7a2.5 2.5 0 0 1 5 0v26.7a17 17 0 0 0 17 16.95h168a17 17 0 0 0 17-16.95v-316.79a2.5 2.5 0 1 1 5 0v316.79a22 22 0 0 1 -22 21.95z"/><path d="m256 424.07a48.36 48.36 0 1 1 27-88.46 2.5 2.5 0 1 1 -2.8 4.14 43.37 43.37 0 1 0 19.12 36 2.5 2.5 0 1 1 5 0 48.41 48.41 0 0 1 -48.32 48.32z"/><path d="m256 372.22a7.5 7.5 0 0 1 -7.5-7.5v-19.09a7.5 7.5 0 0 1 15 0v19.09a7.5 7.5 0 0 1 -7.5 7.5zm0-29.09a2.5 2.5 0 0 0 -2.5 2.5v19.09a2.5 2.5 0 0 0 5 0v-19.09a2.5 2.5 0 0 0 -2.5-2.5z"/><path d="m256 408.36a32.56 32.56 0 0 1 -10.24-1.64 2.5 2.5 0 0 1 1.57-4.75 27.65 27.65 0 0 0 31.56-41.77 2.5 2.5 0 0 0 -3.47-.66 2.47 2.47 0 0 0 -1.06 1.59 2.54 2.54 0 0 0 .39 1.88 22.65 22.65 0 1 1 -37.5 0 2.54 2.54 0 0 0 .39-1.88 2.47 2.47 0 0 0 -1.06-1.59 2.43 2.43 0 0 0 -1.87-.39 2.48 2.48 0 0 0 -1.6 1.05 27.63 27.63 0 0 0 -2.47 26.52 2.5 2.5 0 0 1 -4.58 2 32.61 32.61 0 0 1 2.94-31.33 7.5 7.5 0 0 1 13.57 2.81 7.51 7.51 0 0 1 -1.16 5.62 17.49 17.49 0 0 0 -3 9.89 17.65 17.65 0 1 0 35.3 0 17.49 17.49 0 0 0 -3-9.89 7.5 7.5 0 0 1 12.29-8.43 32.64 32.64 0 0 1 -27 51z"/><path d="m338.1 311.86h-164.2a2.5 2.5 0 0 1 -2.5-2.5v-24.29a2.5 2.5 0 0 1 2.5-2.5h89.72a2.5 2.5 0 0 1 0 5h-87.22v19.29h159.2v-19.29h-18.9a2.5 2.5 0 0 1 0-5h21.4a2.5 2.5 0 0 1 2.5 2.5v24.29a2.5 2.5 0 0 1 -2.5 2.5z"/><path d="m359.46 266.1a2.5 2.5 0 0 1 -.66-.09l-73.31-20a2.49 2.49 0 0 1 -1.84-2.41v-180.13a2.5 2.5 0 0 1 5 0v178.22l71.47 19.5a2.5 2.5 0 0 1 -.66 4.91z"/><path d="m359.46 237.89a2.5 2.5 0 0 1 -.66-.09l-73.31-20a2.5 2.5 0 0 1 1.32-4.82l73.31 20a2.5 2.5 0 0 1 -.66 4.91z"/><path d="m359.46 209.68a2.5 2.5 0 0 1 -.66-.09l-73.31-20a2.5 2.5 0 0 1 1.32-4.82l73.31 20a2.5 2.5 0 0 1 -.66 4.91z"/><path d="m359.46 181.47a2.5 2.5 0 0 1 -.66-.09l-73.31-20a2.5 2.5 0 0 1 1.32-4.82l73.31 20a2.5 2.5 0 0 1 -.66 4.91z"/><path d="m359.46 153.26a2.5 2.5 0 0 1 -.66-.09l-73.31-20a2.5 2.5 0 0 1 1.32-4.83l73.31 20a2.51 2.51 0 0 1 -.66 4.92z"/><path d="m304.72 110.11a2.5 2.5 0 0 1 -.66-.09l-18.57-5.02a2.5 2.5 0 0 1 1.32-4.83l18.56 5.07a2.5 2.5 0 0 1 -.65 4.91z"/><path d="m359.46 125.05a2.5 2.5 0 0 1 -.66-.09l-23.37-6.38a2.5 2.5 0 0 1 1.32-4.82l23.37 6.37a2.51 2.51 0 0 1 -.66 4.92z"/><path d="m152.54 266.1a2.5 2.5 0 0 1 -.66-4.91l71.47-19.5v-178.22a2.5 2.5 0 0 1 5 0v180.13a2.49 2.49 0 0 1 -1.84 2.41l-73.31 19.99a2.5 2.5 0 0 1 -.66.1z"/><path d="m152.54 237.89a2.5 2.5 0 0 1 -.66-4.91l73.31-20a2.5 2.5 0 0 1 1.32 4.82l-73.31 20a2.5 2.5 0 0 1 -.66.09z"/><path d="m152.54 209.68a2.5 2.5 0 0 1 -.66-4.91l73.31-20a2.5 2.5 0 0 1 1.32 4.82l-73.31 20a2.5 2.5 0 0 1 -.66.09z"/><path d="m152.54 181.47a2.5 2.5 0 0 1 -.66-4.91l73.31-20a2.5 2.5 0 0 1 1.32 4.82l-73.31 20a2.5 2.5 0 0 1 -.66.09z"/><path d="m152.54 153.26a2.51 2.51 0 0 1 -.66-4.92l73.31-20a2.5 2.5 0 0 1 1.32 4.83l-73.31 20a2.5 2.5 0 0 1 -.66.09z"/><path d="m207.28 110.11a2.5 2.5 0 0 1 -.65-4.91l18.56-5.07a2.5 2.5 0 0 1 1.32 4.83l-18.57 5.04a2.5 2.5 0 0 1 -.66.11z"/><path d="m152.54 125.05a2.51 2.51 0 0 1 -.66-4.92l23.37-6.37a2.5 2.5 0 1 1 1.32 4.82l-23.37 6.42a2.5 2.5 0 0 1 -.66.05z"/></g></svg>