<?xml version="1.0" encoding="iso-8859-1"?>
<!-- Generator: Adobe Illustrator 19.0.0, SVG Export Plug-In . SVG Version: 6.00 Build 0)  -->
<svg version="1.1" id="Capa_1" xmlns="http://www.w3.org/2000/svg" xmlns:xlink="http://www.w3.org/1999/xlink" x="0px" y="0px"
	 viewBox="0 0 512 512" style="enable-background:new 0 0 512 512;" xml:space="preserve">
<g>
	<path style="fill:#579ADD;" d="M194.247,365.879c-79.495-15.16-139.256-82.173-142.085-173.214
		C48.937,88.801,129.849,14.95,226.443,13.337h160.656v76.828l-136.774-0.003c-52.112-0.005-100.954,42.562-99.261,94.867
		c1.693,52.306,48.174,92.469,86.503,92.421h30.066c4.2,0,7.607-3.406,7.607-7.607v-98.579c0-5.416,4.394-9.81,9.81-9.81h113.163
		L194.247,365.879L194.247,365.879z"/>
	<path style="fill:#E85454;" d="M338.583,381.294V235.11c0-5.416,4.391-9.81,9.807-9.81h145.072L338.583,381.294L338.583,381.294z"
		/>
	<g>
		<path style="fill:#4987CE;" d="M270.293,90.163l116.806,0.002l0,0C351.823,90.164,302.98,90.163,270.293,90.163z"/>
		<path style="fill:#4987CE;" d="M295.239,171.266c0-5.416,4.394-9.81,9.81-9.81h-20c-5.416,0-9.81,4.394-9.81,9.81v98.579
			c0,4.2-3.406,7.607-7.607,7.607h14.845l12.762-12.791V171.266z"/>
		<path style="fill:#4987CE;" d="M72.162,192.665C68.936,88.801,149.849,14.95,246.443,13.337h-20
			C129.849,14.95,48.937,88.801,52.163,192.665c2.829,91.041,62.59,158.054,142.085,173.214l3.864-3.872
			C126.79,341.361,74.796,277.433,72.162,192.665z"/>
	</g>
	<path style="fill:#D84848;" d="M358.583,235.11c0-5.416,4.391-9.81,9.807-9.81h-20c-5.416,0-9.807,4.394-9.807,9.81v146.183
		l20-20.144V235.11z"/>
</g>
<rect x="79.46" y="435.829" width="18.791" height="70.69"/>
<path d="M47.424,490.77c0,0.694-0.564,1.255-1.255,1.255h-5.546c-11.733,0-21.252-9.339-21.252-20.849
	c0-11.511,9.519-20.849,21.252-20.849H65.32v-14.498H35.164C15.748,435.83,0,451.662,0,471.177
	c0,19.514,15.748,35.342,35.164,35.342h30.871v-41.338H47.424V490.77z"/>
<path d="M156.029,490.77c0,0.694-0.561,1.255-1.255,1.255h-5.543c-11.733,0-21.252-9.339-21.252-20.849
	c0-11.511,9.519-20.849,21.252-20.849h24.697v-14.498h-30.156c-19.416,0-35.165,15.833-35.165,35.347
	c0,19.514,15.748,35.342,35.165,35.342h30.871V465.18h-18.614V490.77z"/>
<polygon points="357.989,464.322 343.899,435.83 322.125,435.83 348.43,480.033 348.43,506.518 367.224,506.518 367.224,480.287 
	393.307,435.83 371.367,435.83 "/>
<path d="M308.851,470.282c7.289-3.003,11.481-8.835,11.664-16.14c0.262-10.393-7.938-19.255-22.459-18.312h-32.908v70.689h32.643
	c15.07-0.519,24.186-8.089,24.47-18.698C322.47,480.007,317.686,473.041,308.851,470.282z M283.878,449.162h8.197
	c6.399,0,9.908,3.184,9.794,7.358c-0.114,4.174-3.74,7.358-9.794,7.358h-8.197V449.162z M293.01,493.218h-9.132v-16.765h9.132
	c6.801,0,10.531,3.629,10.409,8.385C303.3,489.595,299.446,493.223,293.01,493.218z"/>
<polygon points="399.192,450.052 416.405,450.052 416.405,506.518 435.312,506.518 435.312,450.052 452.435,450.052 452.435,435.83 
	399.192,435.83 "/>
<path d="M207.771,435.83l-26.843,70.689h18.969l5.157-15.059h27.55l4.876,15.059h20.579l-27.38-70.689H207.771z M209.617,478.127
	l9.574-27.968l9.045,27.968H209.617z"/>
<polygon points="479.993,493.133 479.993,477.348 509.156,477.348 509.156,463.878 480.08,463.878 480.08,449.427 510.941,449.427 
	510.941,435.83 460.998,435.83 460.998,506.518 512,506.518 512,493.133 "/>
<path d="M281.501,20.48h98.098v61.828l-129.273-0.003c-0.004,0-0.006,0-0.009,0c-51.468,0-97.872,37.574-105.646,85.543
	c-0.663,4.089,2.114,7.941,6.203,8.604c0.406,0.066,0.811,0.098,1.209,0.098c3.614,0,6.798-2.619,7.395-6.301
	c6.519-40.225,47.272-72.947,90.847-72.943l136.774,0.003c4.14,0,7.5-3.358,7.5-7.5V12.98c0-4.143-3.357-7.5-7.5-7.5H281.501
	c-4.143,0-7.5,3.357-7.5,7.5S277.358,20.48,281.501,20.48z"/>
<path d="M199.557,370.819l131.526-131.823v141.94c0,6.71,8.138,10,12.822,5.284l154.88-155.993
	c4.688-4.722,1.331-12.784-5.322-12.784H352.588l50.934-51.049c4.705-4.714,1.353-12.797-5.31-12.797H285.049
	c-9.545,0-17.31,7.766-17.31,17.311v98.579c0,0.059-0.048,0.106-0.107,0.106h-30.074c-0.02,0-0.037,0-0.057,0
	c-28.737,0-66.291-27.057-76.434-67.376c-1.011-4.017-5.085-6.456-9.104-5.443c-4.017,1.011-6.454,5.086-5.443,9.104
	c10.924,43.423,51.723,78.717,90.966,78.716c0.026,0,0.054,0,0.08,0h26.833l-72.615,72.778
	C115.148,340.94,62.235,275.012,59.658,192.076C56.603,93.677,133.002,22.072,226.509,20.48h19.992c4.143,0,7.5-3.357,7.5-7.5
	s-3.357-7.5-7.5-7.5h-20.059c-0.042,0-0.083,0-0.125,0.001C124.219,7.185,41.35,85.77,44.666,192.542
	c2.844,91.513,62.391,163.989,148.176,180.349C195.318,373.36,197.821,372.559,199.557,370.819z M346.083,362.738V234.753
	c0-1.273,1.035-2.31,2.308-2.31h127.057L346.083,362.738z M282.739,170.908c0-1.274,1.036-2.311,2.31-2.311h95.085l-97.395,97.614
	V170.908z"/>
<g>
</g>
<g>
</g>
<g>
</g>
<g>
</g>
<g>
</g>
<g>
</g>
<g>
</g>
<g>
</g>
<g>
</g>
<g>
</g>
<g>
</g>
<g>
</g>
<g>
</g>
<g>
</g>
<g>
</g>
</svg>
