<svg height="512pt" viewBox="0 -64 512 512" width="512pt" xmlns="http://www.w3.org/2000/svg"><path d="m352 312h-240l-40-32v-178l40-30h384c4.414062 0 8 3.585938 8 8v224c0 4.414062-3.585938 8-8 8zm0 0" fill="#70a5f4"/><path d="m504 240h-136l-24 24h-48v-144h48l32 24h128zm0 0" fill="#4b81d1"/><path d="m504 208h-144l-32 24h-32v-80h32l32 24h144zm0 0" fill="#fcbe56"/><path d="m280 192c0 48.601562-39.398438 88-88 88s-88-39.398438-88-88 39.398438-88 88-88 88 39.398438 88 88zm0 0" fill="#d64a49"/><g fill="#fcbe56"><path d="m392 312v24c0 4.414062-3.585938 8-8 8h-128c-4.414062 0-8-3.585938-8-8v-24zm0 0"/><path d="m169.375 169.375-39.597656-39.597656c-15.929688 15.917968-25.777344 37.917968-25.777344 62.222656h56c0-8.839844 3.585938-16.839844 9.375-22.625zm0 0"/><path d="m214.625 169.375 39.597656-39.597656c-15.917968-15.929688-37.917968-25.777344-62.222656-25.777344v56c8.839844 0 16.839844 3.585938 22.625 9.375zm0 0"/><path d="m224 192c0 8.839844-3.585938 16.839844-9.375 22.625l39.597656 39.597656c15.929688-15.917968 25.777344-37.917968 25.777344-62.222656zm0 0"/><path d="m169.375 214.625-39.597656 39.597656c15.917968 15.929688 37.917968 25.777344 62.222656 25.777344v-56c-8.839844 0-16.839844-3.585938-22.625-9.375zm0 0"/></g><path d="m224 192c0 17.671875-14.328125 32-32 32s-32-14.328125-32-32 14.328125-32 32-32 32 14.328125 32 32zm0 0" fill="#4b81d1"/><path d="m208 344h-16c-4.414062 0-8-3.585938-8-8v-24h32v24c0 4.414062-3.585938 8-8 8zm0 0" fill="#fcbe56"/><path d="m488 72h-368v-24c0-4.414062 3.585938-8 8-8h352c4.414062 0 8 3.585938 8 8zm0 0" fill="#fcbe56"/><path d="m56 376h-16v-368h16l16 24v320zm0 0" fill="#4b81d1"/><path d="m40 152h-24c-4.414062 0-8-3.585938-8-8v-48c0-4.414062 3.585938-8 8-8h24zm0 0" fill="#d64a49"/><path d="m40 312h-24c-4.414062 0-8-3.585938-8-8v-48c0-4.414062 3.585938-8 8-8h24zm0 0" fill="#fcbe56"/><path d="m496 64v-16c0-8.824219-7.175781-16-16-16h-352c-8.824219 0-16 7.175781-16 16v16c-1.726562 0-3.414062.558594-4.800781 1.601562l-27.199219 20.398438v-54c0-1.574219-.472656-3.128906-1.34375-4.441406l-16-24c-1.488281-2.222656-3.984375-3.558594-6.65625-3.558594h-56v16h32v32h-16v16h16v16h-16c-8.824219 0-16 7.175781-16 16v48c0 8.824219 7.175781 16 16 16h16v16h-16v16h16v16h-16v16h16v16h-16c-8.824219 0-16 7.175781-16 16v48c0 8.824219 7.175781 16 16 16h16v16h-16v16h16v24c0 4.414062 3.585938 8 8 8h16c2.671875 0 5.167969-1.335938 6.65625-3.558594l16-24c.871094-1.320312 1.34375-2.867187 1.34375-4.441406v-55.359375l27 21.597656c1.425781 1.144531 3.183594 1.761719 5 1.761719h16v16h-16v16h24c4.414062 0 8-3.585938 8-8v-24h32v16c0 8.824219 7.175781 16 16 16h16c8.824219 0 16-7.175781 16-16v-16h16v16c0 8.824219 7.175781 16 16 16h128c8.824219 0 16-7.175781 16-16v-16h32v16c0 2.121094.839844 4.160156 2.34375 5.65625l8 8c1.496094 1.503906 3.527344 2.34375 5.65625 2.34375h32v-16h-28.6875l-3.3125-3.3125v-12.6875h48c8.824219 0 16-7.175781 16-16v-224c0-8.824219-7.175781-16-16-16zm-368-16h352v16h-352zm-112 96v-48h16v48zm0 160v-48h16v48zm48 45.574219-12.28125 18.425781h-3.71875v-352h3.71875l12.28125 18.425781zm144.007812-13.574219h-16.007812v-16h16zm159.992188-32v16h16v16h-128v-16h96v-16h-237.191406l-34.808594-27.839844v-170.160156l34.664062-26h381.335938v56h-117.335938l-29.863281-22.398438c-1.386719-1.042968-3.066406-1.601562-4.800781-1.601562h-56v16h53.335938l29.863281 22.398438c1.386719 1.042968 3.066406 1.601562 4.800781 1.601562h120v16h-80v16h80v16h-80v16h80v16h-128c-2.128906 0-4.160156.839844-5.65625 2.34375l-21.65625 21.65625h-52.6875v16h56c2.128906 0 4.160156-.839844 5.65625-2.34375l21.65625-21.65625h124.6875v56zm0 0"/><path d="m286 211.503906c.015625-.0625.03125-.128906.046875-.199218.554687-2.695313.9375-5.433594 1.257813-8.191407.054687-.464843.160156-.921875.207031-1.394531.320312-3.207031.488281-6.445312.488281-9.71875s-.167969-6.511719-.496094-9.726562c-.046875-.472657-.152344-.921876-.207031-1.394532-.320313-2.75-.703125-5.496094-1.257813-8.191406-.015624-.0625-.03125-.128906-.046874-.199219-3.734376-18.199219-12.671876-34.9375-26.113282-48.375-13.445312-13.441406-30.175781-22.378906-48.375-26.113281-.0625-.015625-.128906-.03125-.199218-.046875-2.695313-.554687-5.433594-.9375-8.191407-1.257813-.464843-.054687-.921875-.160156-1.394531-.207031-3.207031-.320312-6.445312-.488281-9.71875-.488281s-6.511719.167969-9.726562.496094c-.472657.046875-.921876.152344-1.394532.207031-2.75.320313-5.496094.703125-8.191406 1.257813-.0625.015624-.128906.03125-.199219.046874-18.199219 3.734376-34.9375 12.671876-48.375 26.113282-13.441406 13.445312-22.378906 30.175781-26.113281 48.375-.015625.0625-.03125.128906-.046875.199218-.554687 2.695313-.9375 5.433594-1.257813 8.191407-.054687.464843-.160156.921875-.207031 1.394531-.320312 3.207031-.488281 6.445312-.488281 9.71875 0 26.359375 10.6875 50.257812 27.945312 67.625.070313.078125.09375.183594.175782.253906 13.445312 13.441406 30.175781 22.378906 48.375 26.113282.0625.015624.128906.03125.199218.046874 2.695313.554688 5.433594.9375 8.191407 1.257813.464843.054687.921875.160156 1.394531.207031 3.207031.328125 6.445312.496094 9.71875.496094 26.359375 0 50.257812-10.6875 67.625-27.945312.078125-.070313.183594-.09375.253906-.175782 13.449219-13.4375 22.386719-30.175781 26.121094-48.375zm-16.144531-1.398437c-.246094 1.0625-.527344 2.117187-.816407 3.167969-.695312 2.527343-1.519531 5.007812-2.453124 7.445312-.328126.855469-.609376 1.738281-.96875 2.578125-1.191407 2.800781-2.601563 5.511719-4.113282 8.167969-.632812 1.109375-1.304687 2.191406-1.992187 3.269531-1.367188 2.152344-2.839844 4.25-4.421875 6.273437-.410156.519532-.769532 1.070313-1.1875 1.585938l-28.527344-28.53125c1.289062-1.941406 2.34375-4.007812 3.265625-6.125.0625-.144531.152344-.265625.214844-.402344 1.023437-2.421875 1.824219-4.933594 2.34375-7.535156h40.394531c0 .039062 0 .078125-.007812.121094-.339844 3.382812-.96875 6.703125-1.730469 9.984375zm-85.976563 61.488281c-3.382812-.335938-6.695312-.976562-9.976562-1.730469-1.078125-.246093-2.140625-.527343-3.199219-.824219-2.503906-.6875-4.96875-1.511718-7.382813-2.4375-.894531-.34375-1.808593-.640624-2.6875-1.015624-2.777343-1.1875-5.464843-2.578126-8.097656-4.082032-1.109375-.632812-2.199218-1.3125-3.277344-1.992187-2.152343-1.367188-4.242187-2.839844-6.273437-4.414063-.519531-.410156-1.074219-.769531-1.585937-1.1875l28.53125-28.527344c1.941406 1.289063 4.007812 2.34375 6.125 3.265626.144531.0625.265624.152343.402343.214843 2.421875 1.023438 4.933594 1.824219 7.535157 2.34375v40.394531c-.03125-.007812-.070313-.007812-.113282-.007812zm-71.472656-71.59375h40.402344c1.039062 5.097656 3.070312 9.832031 5.855468 14.023438l-28.566406 28.570312c-9.714844-11.859375-16.089844-26.53125-17.691406-42.59375zm0-16.121094c.335938-3.382812.976562-6.695312 1.730469-9.976562.246093-1.078125.527343-2.140625.824219-3.199219.6875-2.503906 1.511718-4.96875 2.4375-7.382813.34375-.894531.640624-1.808593 1.015624-2.6875 1.1875-2.777343 2.578126-5.464843 4.082032-8.097656.632812-1.109375 1.3125-2.199218 1.992187-3.277344 1.367188-2.152343 2.839844-4.242187 4.414063-6.273437.410156-.519531.769531-1.074219 1.1875-1.585937l28.527344 28.53125c-1.289063 1.941406-2.34375 4.007812-3.265626 6.125-.0625.144531-.152343.265624-.214843.402343-1.015625 2.429688-1.816407 4.949219-2.335938 7.542969h-40.394531c0-.039062 0-.078125 0-.121094zm36.851562-59.390625c1.078126-.6875 2.167969-1.359375 3.277344-1.992187 2.632813-1.496094 5.320313-2.894532 8.097656-4.082032.878907-.375 1.792969-.671874 2.6875-1.015624 2.414063-.925782 4.878907-1.75 7.382813-2.4375 1.066406-.296876 2.128906-.578126 3.199219-.824219 3.28125-.753907 6.59375-1.394531 9.976562-1.730469.042969-.007812.082032 0 .121094-.007812v40.402343c-2.59375.527344-5.113281 1.328125-7.535156 2.34375-.144532.054688-.265625.152344-.402344.214844-2.117188.921875-4.183594 1.976563-6.125 3.265625l-28.53125-28.527344c.515625-.417968 1.066406-.777344 1.585938-1.1875 2.023437-1.582031 4.121093-3.054687 6.265624-4.421875zm50.863282-12.082031c3.382812.335938 6.695312.976562 9.976562 1.730469 1.078125.246093 2.140625.527343 3.199219.824219 2.503906.6875 4.96875 1.511718 7.382813 2.4375.894531.34375 1.808593.640624 2.6875 1.015624 2.777343 1.1875 5.464843 2.578126 8.097656 4.082032 1.109375.632812 2.199218 1.3125 3.277344 1.992187 2.152343 1.367188 4.242187 2.839844 6.273437 4.414063.519531.410156 1.074219.769531 1.585937 1.1875l-28.53125 28.527344c-1.941406-1.289063-4.007812-2.34375-6.125-3.265626-.144531-.0625-.265624-.152343-.402343-.214843-2.429688-1.015625-4.949219-1.816407-7.542969-2.335938v-40.394531zm65.496094 48.296875c.359374.839844.640624 1.722656.96875 2.578125.933593 2.4375 1.765624 4.917969 2.453124 7.445312.289063 1.050782.570313 2.105469.816407 3.167969.761719 3.28125 1.390625 6.601563 1.738281 9.992188 0 .042969 0 .082031.007812.121093h-40.402343c-.527344-2.59375-1.328125-5.113281-2.34375-7.535156-.054688-.144531-.152344-.265625-.214844-.402344-.921875-2.117187-1.976563-4.183593-3.265625-6.125l28.527344-28.53125c.417968.515626.777344 1.066407 1.1875 1.585938 1.582031 2.023438 3.054687 4.121094 4.421875 6.273438.679687 1.078124 1.351562 2.160156 1.992187 3.269531 1.511719 2.648437 2.921875 5.351562 4.113282 8.160156zm-50.105469 36.097656c-.0625.296875-.191407.566407-.265625.863281-.300782 1.257813-.644532 2.496094-1.132813 3.664063-.058593.136719-.152343.257813-.210937.390625-3.734375 8.394531-12.125 14.28125-21.902344 14.28125-1.640625 0-3.246094-.167969-4.800781-.488281-.296875-.054688-.558594-.183594-.847657-.253907-1.253906-.304687-2.503906-.648437-3.671874-1.144531-.121094-.050781-.214844-.128906-.335938-.175781-8.433594-3.730469-14.34375-12.144531-14.34375-21.9375 0-1.640625.167969-3.246094.488281-4.800781.054688-.289063.183594-.550781.253907-.839844.304687-1.261719.648437-2.511719 1.144531-3.6875.058593-.128906.136719-.238281.191406-.359375 2.417969-5.441406 6.777344-9.808594 12.210937-12.222656.136719-.066406.253907-.152344.390626-.210938 1.167968-.496094 2.410156-.832031 3.664062-1.136718.296875-.070313.566406-.199219.863281-.261719 1.546875-.3125 3.152344-.480469 4.792969-.480469s3.246094.167969 4.800781.488281c.289063.054688.558594.183594.847657.253907 1.253906.304687 2.503906.648437 3.671874 1.144531.144532.066406.273438.160156.414063.226562 5.402344 2.414063 9.746094 6.75 12.160156 12.160157.066407.140624.160157.269531.226563.414062.496094 1.167969.832031 2.417969 1.144531 3.671875.070313.289063.199219.5625.253906.847656.3125 1.546875.480469 3.152344.480469 4.792969s-.167969 3.246094-.488281 4.800781zm-15.511719 34.390625c5.097656-1.039062 9.832031-3.070312 14.023438-5.855468l28.570312 28.566406c-11.859375 9.707031-26.53125 16.089844-42.59375 17.691406zm0 0"/><path d="m355.199219 182.398438c1.386719 1.042968 3.066406 1.601562 4.800781 1.601562h40v-16h-37.335938l-29.863281-22.398438c-1.386719-1.042968-3.066406-1.601562-4.800781-1.601562h-40v16h37.335938zm0 0"/><path d="m355.199219 201.601562-29.863281 22.398438h-37.335938v16h40c1.734375 0 3.414062-.558594 4.800781-1.601562l29.863281-22.398438h37.335938v-16h-40c-1.734375 0-3.414062.558594-4.800781 1.601562zm0 0"/><path d="m304 184h32v16h-32zm0 0"/><path d="m464 96h16v16h-16zm0 0"/><path d="m464 272h16v16h-16zm0 0"/></svg>