<?xml version="1.0" encoding="iso-8859-1"?>
<!-- Generator: Adobe Illustrator 19.0.0, SVG Export Plug-In . SVG Version: 6.00 Build 0)  -->
<svg version="1.1" id="Capa_1" xmlns="http://www.w3.org/2000/svg" xmlns:xlink="http://www.w3.org/1999/xlink" x="0px" y="0px"
	 viewBox="0 0 512.002 512.002" style="enable-background:new 0 0 512.002 512.002;" xml:space="preserve">
<g>
	<path style="fill:#579ADD;" d="M243.504,384.972C-13.007,408.634,5.193,260.882,61.292,199.695V186.35
		c-41.283,36.206-63.656,82.019-50.769,136.135c31.329,132.109,289.929,112.806,410.064,46.819v-37.739
		C376.66,357.737,304.019,379.357,243.504,384.972z"/>
	<path style="fill:#579ADD;" d="M502.81,185.447c-23.349-113.991-244.68-121.218-387.35-34.37v9.593
		c142.509-73.267,344.652-72.821,363.055,32.186c6.175,34.735-13.39,70.926-48.346,91.761v27.248
		C472.218,296.44,515.349,246.554,502.81,185.447z"/>
</g>
<g>
	<path style="fill:#4987CE;" d="M419.958,331.931v20.271C297.141,419.662,19.046,441.543,7.15,284.651
		c-0.783,12.113,0.253,24.728,3.374,37.834c31.329,132.109,289.929,112.806,410.064,46.819v-37.739
		C420.382,331.688,420.166,331.808,419.958,331.931z"/>
	<path style="fill:#4987CE;" d="M430.169,284.617v27.248c4.21-1.545,8.431-3.44,12.605-5.652v-11.6c0-3.817,1.899-7.387,5.073-9.506
		c31.758-21.212,49.148-55.546,43.277-88.566c-6.875-39.227-39.391-63.861-84.858-75.515c38.81,12.792,66.027,36.336,72.249,71.831
		C484.69,227.591,465.125,263.781,430.169,284.617z"/>
</g>
<g>
	<path style="fill:#579ADD;" d="M411.399,168.847h-23.347c-0.68,0-1.231,0.551-1.231,1.231v113.715
		c0,13.147,6.202,24.622,24.436,26.906c0.729,0.091,1.372-0.491,1.372-1.226V170.078
		C412.63,169.398,412.079,168.847,411.399,168.847z"/>
	<path style="fill:#579ADD;" d="M104.094,210.816H80.701c-0.68,0-1.231,0.551-1.231,1.231l-0.013,73.868
		c0,13.195,6.224,24.658,24.498,26.909c0.728,0.089,1.37-0.492,1.37-1.226v-99.551C105.325,211.366,104.774,210.816,104.094,210.816
		z"/>
	<path style="fill:#579ADD;" d="M79.47,173.575v22.002c0,0.68,0.551,1.231,1.231,1.231h23.312c0.68,0,1.231-0.551,1.231-1.231
		v-22.002c0-0.68-0.551-1.231-1.231-1.231H80.701C80.021,172.344,79.47,172.896,79.47,173.575z"/>
	<path style="fill:#579ADD;" d="M259.888,311.783c-20.891,0-29.731-14.519-29.731-28.821V184.48c0-0.68,0.551-1.231,1.231-1.231
		h23.123c0.68,0,1.231,0.551,1.231,1.231v25.106c0,0.68,0.551,1.231,1.231,1.231h16.804c0.68,0,1.231,0.551,1.231,1.231v18.203
		c0,0.68-0.551,1.231-1.231,1.231h-16.804c-0.68,0-1.231,0.551-1.231,1.231v48.67c0,5.831,2.767,9.08,8.848,9.08h9.187
		c0.68,0,1.231,0.551,1.231,1.231v18.86c0,0.68-0.551,1.231-1.231,1.231L259.888,311.783"/>
	<path style="fill:#579ADD;" d="M306.965,269.301c0,13.094,8.188,22.714,22.673,22.714c10.856,0,16.446-2.881,22.647-8.795
		c0.477-0.455,1.228-0.466,1.705-0.011l14.025,13.359c0.507,0.483,0.512,1.299,0.007,1.784c-9.863,9.477-20.4,15.202-38.574,15.202
		c-24.484,0-47.941-13.363-47.941-52.319c0-33.305,20.498-52.13,47.374-52.13c27.322,0,43.022,22.038,43.022,50.968v7.998
		c0,0.68-0.551,1.231-1.231,1.231h-63.707 M309.424,240.857c-1.492,3.284-2.135,5.916-2.388,9.673
		c-0.048,0.714,0.514,1.326,1.229,1.326h36.819c0.71,0,1.284-0.599,1.229-1.307C344.196,223.198,315.958,226.911,309.424,240.857z"
		/>
	<path style="fill:#579ADD;" d="M174.811,231.48c7.503,0,10.621,3.709,10.621,9.729v69.491c0,0.68,0.551,1.231,1.231,1.231h23.127
		c0.68,0,1.231-0.551,1.231-1.231V241.06c0-14.362-7.651-30.218-30.122-30.218l-51.628-0.026c-0.68,0-1.232,0.551-1.232,1.231
		v98.653c0,0.68,0.551,1.231,1.231,1.231h23.137c0.68,0,1.231-0.551,1.231-1.231v-77.99c0-0.68,0.551-1.231,1.231-1.231
		L174.811,231.48L174.811,231.48z"/>
</g>
<g>
	<path style="fill:#4987CE;" d="M399.852,283.793V170.078c0-0.68,0.551-1.231,1.231-1.231h-13.03c-0.68,0-1.231,0.551-1.231,1.231
		v113.715c0,13.147,6.202,24.622,24.436,26.906c0.729,0.091,1.372-0.491,1.372-1.226V307.3
		C403.307,302.474,399.852,293.6,399.852,283.793z"/>
	<path style="fill:#4987CE;" d="M92.487,285.914l0.013-73.868c0-0.68,0.551-1.231,1.231-1.231h-13.03
		c-0.68,0-1.231,0.551-1.231,1.231l-0.013,73.868c0,13.195,6.224,24.658,24.498,26.909c0.729,0.09,1.37-0.492,1.37-1.226v-2.139
		C95.959,304.65,92.487,295.766,92.487,285.914z"/>
	<path style="fill:#4987CE;" d="M92.5,195.578v-22.002c0-0.68,0.551-1.231,1.231-1.231h-13.03c-0.68,0-1.231,0.551-1.231,1.231
		v22.002c0,0.68,0.551,1.231,1.231,1.231h13.03C93.051,196.808,92.5,196.257,92.5,195.578z"/>
	<path style="fill:#4987CE;" d="M243.188,282.962V184.48c0-0.68,0.551-1.231,1.231-1.231h-13.03c-0.68,0-1.231,0.551-1.231,1.231
		v98.482c0,14.302,8.841,28.821,29.73,28.821h13.03C252.028,311.783,243.188,297.264,243.188,282.962z"/>
	<path style="fill:#4987CE;" d="M294.538,261.234c0-30.448,17.136-48.783,40.611-51.707c-2.018-0.27-4.102-0.423-6.268-0.423
		c-26.876,0-47.374,18.825-47.374,52.13c0,38.956,23.457,52.319,47.941,52.319c2.411,0,4.679-0.107,6.838-0.305
		C314.186,311.093,294.538,296.885,294.538,261.234z"/>
	<path style="fill:#4987CE;" d="M141.07,310.701v-98.653c0-0.669,0.534-1.206,1.199-1.224l-12.997-0.007
		c-0.68,0-1.232,0.551-1.232,1.231v98.653c0,0.68,0.551,1.231,1.231,1.231h13.03C141.621,311.931,141.07,311.381,141.07,310.701z"/>
</g>
<path d="M412.504,317.956c4.42,0.428,8.243-3.05,8.243-7.482V168.47c0-4.152-3.366-7.518-7.518-7.518h-25.808
	c-4.152,0-7.518,3.366-7.518,7.518v86.921c-3.181-64.602-73.671-68.246-96.778-28.773v-16.18c0-4.152-3.366-7.518-7.518-7.518
	h-11.748v-20.049c0-4.152-3.366-7.518-7.518-7.518h-25.585c-4.152,0-7.518,3.366-7.518,7.518v99.713
	c0,17.502,11.656,36.339,37.249,36.339h15.12c4.152,0,7.518-3.366,7.518-7.518v-14.968c10.02,16.763,27.546,24.256,46.923,24.256
	c18.672,0,31.646-5.293,44.78-18.271c3.019-2.982,2.966-7.87-0.099-10.791c-0.12-0.115-15.828-15.079-15.951-15.191h13.726
	c3.712,0,6.788-2.693,7.399-6.231v13.205C379.904,303.357,391.785,315.947,412.504,317.956z M394.939,175.988h10.773v125.194
	c-7.311-2.82-10.773-8.608-10.773-17.767V175.988z M268.09,303.889h-7.603c-20.611,0-22.214-16.306-22.214-21.304v-92.195h10.55
	v20.049c0,4.152,3.366,7.518,7.518,7.518h11.748v5.629h-11.748c-4.152,0-7.518,3.366-7.518,7.518v49.901
	c0,10.238,6.271,16.598,16.366,16.598h2.901V303.889z M277.356,282.779c-1.988-0.475-11.845,0.007-13.36-0.314
	c-0.212-0.878-0.136,0.803-0.136-43.844c12.688,0,12.563,0.128,14.114-0.386C273.284,252.769,273.821,270.115,277.356,282.779z
	 M364.986,261.406h-57.422c-4.152,0-7.518,3.366-7.518,7.518c0,31.993,35.347,36.826,53.464,23.261l4.938,4.704
	c-7.114,5.519-15.321,8.77-28.399,8.77c-15.097,0-40.423-5.821-40.423-44.802c0-27.518,15.272-44.612,39.856-44.612
	C353.972,216.245,364.986,236.606,364.986,261.406z M348.693,276.441c-4.881,4.411-7.578,7.679-18.455,7.679
	c-6.753,0-11.487-2.722-13.713-7.679H348.693z"/>
<path d="M105.213,320.079c4.418,0.419,8.228-3.06,8.228-7.483V210.439c0-3.207-2.013-5.939-4.842-7.018
	c2.787-1.101,4.761-3.811,4.761-6.989v-24.464c0-4.152-3.366-7.518-7.518-7.518H80.069c-4.152,0-7.518,3.366-7.518,7.518v24.464
	c0,3.192,1.994,5.914,4.801,7.003c-2.808,1.09-4.801,3.81-4.801,7.002l-0.014,75.099C72.538,305.515,84.447,318.106,105.213,320.079
	z M87.587,179.485h10.739v9.429H87.587V179.485z M87.586,217.957h10.821v85.371c-7.352-2.806-10.834-8.602-10.834-17.79
	L87.586,217.957z"/>
<path d="M303.179,237.371c-2.046,4.499-2.893,8.237-3.126,13.792c-0.18,4.261,3.228,7.834,7.511,7.834
	c42.608,0,41.902,0.775,44.864-2.323c1.418-1.484,2.168-3.484,2.075-5.535C352.832,214.38,313.135,216.119,303.179,237.371z
	 M316.7,243.963c1.944-4.401,6.673-6.557,11.659-6.557c4.678,0,7.902,2.199,9.643,6.557H316.7z"/>
<path d="M186.031,319.073h25.589c4.152,0,7.518-3.366,7.518-7.518v-70.873c0-17.408-9.857-37.735-37.636-37.735l-52.859-0.027
	c-0.001,0-0.002,0-0.004,0c-1.993,0-3.905,0.792-5.314,2.2c-1.411,1.41-2.203,3.323-2.203,5.317v101.116
	c0,4.152,3.366,7.518,7.518,7.518h25.599c4.152,0,7.518-3.366,7.518-7.518V238.62h13.657c2.111,0,2.811,0.429,2.836,0.429l0,0
	c0.022,0.039,0.267,0.501,0.267,1.782v70.723C178.513,315.707,181.879,319.073,186.031,319.073z M175.411,223.586h-21.174
	c-4.152,0-7.518,3.366-7.518,7.518v72.934h-10.564v-86.077l45.342,0.023c20.402,0,22.605,15.875,22.605,22.7v63.354h-10.554v-63.206
	C193.548,230.194,186.599,223.586,175.411,223.586z"/>
<path d="M112.143,166.71c2.236,1.365,5.023,1.467,7.353,0.269c139.06-71.494,335.074-71,352.217,26.816
	c5.595,31.467-11.988,64.434-44.794,83.988c-2.275,1.356-3.669,3.809-3.669,6.457v27.248c0,5.246,5.228,8.844,10.107,7.058
	c32.166-11.799,68.674-44.462,77.726-90.837c0.795-4.075-1.863-8.023-5.938-8.819c-4.077-0.798-8.023,1.863-8.819,5.938
	c-6.993,35.832-32.716,62.327-58.041,75.182v-11.583c35.854-23.051,54.712-60.806,48.234-97.245
	c-5.177-29.54-24.364-53.33-55.485-68.796c-49.984-24.84-127.802-27.049-205.836-9.338c117.28-31.019,258.444-12.017,271.846,79.231
	c0.604,4.108,4.426,6.951,8.53,6.346c4.108-0.603,6.949-4.422,6.346-8.53C493.039,61.519,259.06,54.85,112.15,144.279
	c-2.24,1.364-3.608,3.798-3.608,6.421v9.593C108.542,162.914,109.906,165.345,112.143,166.71z"/>
<path d="M211.797,427.638c4.151-0.098,7.436-3.541,7.339-7.692s-3.53-7.424-7.692-7.339
	c-106.57,2.516-178.714-31.975-193.007-92.239c-7.172-30.115-3.197-58.595,11.807-85.129c-8.71,20.425-13.425,44.321-8.927,68.591
	c16.341,87.472,134.278,96.479,223.481,88.251c56.931-5.281,124.099-24.596,168.872-48.089v20.445
	c-47.395,24.97-114.678,41.36-167.652,46.156c-4.135,0.377-7.181,4.035-6.803,8.17c0.377,4.135,4.039,7.183,8.17,6.803
	c55.043-4.964,127.25-22.49,177.421-50.047c2.404-1.321,3.898-3.846,3.898-6.589v-37.739c0-5.824-6.362-9.441-11.366-6.458
	c-81.729,48.696-226.443,69.279-310.277,43.849c-100.258-30.41-79.259-120.959-39.63-164.183c2.49-2.716,1.977-4.17,1.977-18.425
	c0-2.951-1.727-5.629-4.415-6.848c-2.688-1.218-5.84-0.751-8.06,1.196C9.688,221.758-8.682,271.389,3.808,323.842
	C23.499,406.867,126.5,429.641,211.797,427.638z"/>
<g>
</g>
<g>
</g>
<g>
</g>
<g>
</g>
<g>
</g>
<g>
</g>
<g>
</g>
<g>
</g>
<g>
</g>
<g>
</g>
<g>
</g>
<g>
</g>
<g>
</g>
<g>
</g>
<g>
</g>
</svg>
