<?xml version="1.0" encoding="iso-8859-1"?>
<!-- Generator: Adobe Illustrator 19.0.0, SVG Export Plug-In . SVG Version: 6.00 Build 0)  -->
<svg version="1.1" id="Capa_1" xmlns="http://www.w3.org/2000/svg" xmlns:xlink="http://www.w3.org/1999/xlink" x="0px" y="0px"
	 viewBox="0 0 512 512" style="enable-background:new 0 0 512 512;" xml:space="preserve">
<path style="fill:#72BE4F;" d="M205.231,59.163v25.513c0,2.897,2.416,5.22,5.31,5.079c58.196-2.84,114.542,29.392,150.552,71.777
	c1.639,1.93,1.627,4.761-0.047,6.661c-36.178,41.094-94.312,86.241-150.106,79.429c-3.036-0.371-5.709,1.986-5.709,5.044v11.81
	c0,2.619,1.984,4.831,4.593,5.067c3.496,0.316,7.084,0.492,10.781,0.492c65.128,0,112.616-32.549,158.296-71.641
	c1.72-1.472,4.194-1.629,6.096-0.401c8.737,5.639,27.247,14.95,37.227,21.46c2.959,1.931,3.144,6.209,0.32,8.333
	c-48.598,36.538-155.265,66.456-211.907,62.47c-2.928-0.206-5.407,2.142-5.407,5.077v20.679c0,2.81,2.278,5.088,5.088,5.088H453.12
	c2.81,0,5.088-2.278,5.088-5.088V59.163c0-2.81-2.278-5.088-5.088-5.088H210.32C207.51,54.074,205.231,56.352,205.231,59.163z"/>
<g>
	<path style="fill:#C2C2C4;" d="M216.482,458.454h22.579c1.02,0,1.847-0.827,1.847-1.847V367.27c0-1.02-0.827-1.847-1.847-1.847
		H216.47c-1.02,0-1.847,0.827-1.847,1.847l0.012,89.336C214.636,457.627,215.462,458.454,216.482,458.454z"/>
	<path style="fill:#C2C2C4;" d="M55.12,365.295H9.784c-1.02,0-1.847,0.827-1.847,1.847v89.465c0,1.02,0.827,1.847,1.847,1.847
		h22.814c1.02,0,1.847-0.827,1.847-1.847v-67.041c0-1.02,0.827-1.847,1.847-1.847l18.693,0.006
		c17.903,0,20.772,11.841,20.772,29.823v39.059c0,1.02,0.827,1.847,1.847,1.847h21.991c1.02,0,1.847-0.827,1.847-1.847v-49.622
		C101.442,370.25,78.03,365.295,55.12,365.295z"/>
	<path style="fill:#C2C2C4;" d="M153.075,433.053l-18.885-66.282c-0.226-0.793-0.951-1.34-1.776-1.341l-24.43-0.005
		c-1.253,0-2.142,1.221-1.758,2.413l28.809,89.335c0.246,0.763,0.956,1.28,1.757,1.28h35.182c0.8,0,1.509-0.515,1.756-1.276
		l29.044-89.336c0.388-1.193-0.501-2.418-1.756-2.418h-22.895c-0.817,0-1.537,0.537-1.77,1.32l-19.732,66.329
		C156.094,434.844,153.581,434.829,153.075,433.053z"/>
	<path style="fill:#C2C2C4;" d="M466.723,365.449l-32.587,0.011c-0.758,0-1.439,0.464-1.717,1.169l-35.236,89.267
		c-0.478,1.212,0.415,2.525,1.718,2.525h21.89c0.783,0,1.48-0.493,1.741-1.231l4.934-13.964c0.261-0.738,0.958-1.231,1.741-1.231
		h40.783c0.794,0,1.5,0.508,1.751,1.261l4.647,13.905c0.252,0.753,0.957,1.261,1.751,1.261h24.071c1.305,0,2.198-1.316,1.716-2.529
		l-35.49-89.278C468.16,365.91,467.48,365.449,466.723,365.449z M434.455,423.476l13.722-36.402
		c0.604-1.602,2.875-1.591,3.462,0.017l13.304,36.402c0.44,1.205-0.452,2.48-1.734,2.48h-27.026
		C434.892,425.974,434,424.683,434.455,423.476z"/>
	<path style="fill:#C2C2C4;" d="M293.804,365.424h-35.029c-1.02,0-1.847,0.827-1.847,1.847v89.336c0,1.02,0.827,1.847,1.847,1.847
		h40.766c22.704,0,30.118-3.773,38.134-12.241c5.659-5.942,9.324-18.988,9.324-33.249c0-13.082-3.098-24.741-8.505-32.007
		C328.762,367.965,314.736,365.424,293.804,365.424z M294.286,438.595h-9.449c-1.02,0-1.847-0.827-1.847-1.847v-49.219
		c0-1.02,0.827-1.847,1.847-1.847h9.449c16.394,0,26.99,7.359,26.99,26.453C321.275,431.235,310.681,438.595,294.286,438.595z"/>
	<path style="fill:#C2C2C4;" d="M361.064,458.454h22.597c1.02,0,1.847-0.827,1.847-1.847v-89.33c0-1.02-0.827-1.846-1.846-1.847
		l-22.597-0.005c-1.02,0-1.847,0.827-1.847,1.847v89.335C359.217,457.627,360.044,458.454,361.064,458.454z"/>
</g>
<g>
	<path style="fill:#B0B0B5;" d="M229.636,456.608l-0.012-89.336c0-1.02,0.827-1.847,1.847-1.847H216.47
		c-1.02,0-1.847,0.827-1.847,1.847l0.012,89.336c0,1.02,0.827,1.846,1.847,1.846h15.001
		C230.463,458.454,229.637,457.627,229.636,456.608z"/>
	<path style="fill:#B0B0B5;" d="M22.937,456.607v-89.465c0-1.02,0.827-1.847,1.847-1.847H9.784c-1.02,0-1.847,0.827-1.847,1.847
		v89.465c0,1.02,0.827,1.847,1.847,1.847h15.001C23.764,458.454,22.937,457.627,22.937,456.607z"/>
	<path style="fill:#B0B0B5;" d="M150.036,457.174l-28.81-89.335c-0.382-1.184,0.493-2.392,1.731-2.41l-14.974-0.003
		c-1.253,0-2.142,1.221-1.758,2.413l28.81,89.335c0.246,0.763,0.956,1.28,1.757,1.28h15.001
		C150.992,458.454,150.282,457.937,150.036,457.174z"/>
	<path style="fill:#B0B0B5;" d="M412.185,455.896l35.236-89.267c0.278-0.705,0.959-1.168,1.717-1.169l17.619-0.006
		c-0.012,0-0.022-0.005-0.034-0.005l-32.587,0.011c-0.758,0-1.439,0.464-1.717,1.169l-35.236,89.267
		c-0.478,1.212,0.415,2.525,1.718,2.525h15.001C412.6,458.421,411.707,457.108,412.185,455.896z"/>
	<path style="fill:#B0B0B5;" d="M271.929,456.607V367.27c0-1.02,0.827-1.847,1.847-1.847h-15.001c-1.02,0-1.847,0.827-1.847,1.847
		v89.336c0,1.02,0.827,1.847,1.847,1.847h15.001C272.756,458.454,271.929,457.627,271.929,456.607z"/>
	<path style="fill:#B0B0B5;" d="M374.218,456.607v-89.335c0-1.008,0.809-1.824,1.812-1.843l-14.966-0.004
		c-1.02,0-1.847,0.827-1.847,1.847v89.335c0,1.02,0.827,1.847,1.847,1.847h15.001C375.045,458.454,374.218,457.627,374.218,456.607z
		"/>
</g>
<g>
	<path style="fill:#66AF3F;" d="M95.895,169.027c0,0,36.485-53.834,109.337-59.402V90.095
		c-80.689,6.482-150.567,74.822-150.567,74.822s39.578,114.407,150.567,124.883v-20.757
		C123.784,258.794,95.895,169.027,95.895,169.027z"/>
	<path style="fill:#66AF3F;" d="M205.231,227.757v19.014c-61.555-10.977-78.644-74.969-78.644-74.969s29.555-32.742,78.644-38.05
		v20.861c-0.036,0-0.062-0.01-0.094-0.01c-25.763-3.093-45.889,20.974-45.889,20.974S170.528,216.096,205.231,227.757"/>
</g>
<path style="fill:#72BE4F;" d="M205.231,133.752V109.63c2.345-0.166,4.706-0.293,7.119-0.368
	c65.969-2.072,109.251,56.689,109.251,56.689s-46.749,64.922-96.869,64.922c-7.213,0-13.683-1.158-19.501-3.116v-73.143
	c25.681,3.102,30.849,14.447,46.288,40.186l34.342-28.956c0,0-25.067-32.875-67.325-32.875
	C213.944,132.965,209.547,133.29,205.231,133.752"/>
<g>
	<path style="fill:#66AF3F;" d="M231.483,165.513c-6.288-5.996-13.893-9.407-26.252-10.9v73.143
		c5.818,1.958,12.288,3.116,19.501,3.116c2.258,0,4.51-0.136,6.75-0.388V165.513z"/>
	<path style="fill:#66AF3F;" d="M231.483,134.034v-23.673c-6.137-0.895-12.519-1.307-19.132-1.099
		c-2.413,0.075-4.774,0.202-7.119,0.368v24.123c4.316-0.462,8.714-0.787,13.306-0.784
		C223.057,132.968,227.367,133.363,231.483,134.034z"/>
	<path style="fill:#66AF3F;" d="M209.825,269.542c3.496,0.316,7.084,0.493,10.781,0.493c3.684,0,7.303-0.118,10.878-0.322v-21.827
		c-6.852,0.62-13.715,0.569-20.542-0.265c-3.035-0.371-5.709,1.986-5.709,5.044v11.81
		C205.231,267.094,207.216,269.306,209.825,269.542z"/>
	<path style="fill:#66AF3F;" d="M210.542,89.754c7.018-0.342,14.009-0.163,20.941,0.471v-36.15h-21.164
		c-2.81,0-5.088,2.278-5.088,5.088v25.513C205.231,87.572,207.648,89.896,210.542,89.754z"/>
	<path style="fill:#66AF3F;" d="M231.483,290.35c-7.476,0.37-14.479,0.354-20.844-0.094c-2.928-0.206-5.407,2.142-5.407,5.077
		v20.679c0,2.81,2.278,5.088,5.088,5.088h21.164L231.483,290.35L231.483,290.35z"/>
</g>
<path d="M511.47,455.293l-36.959-92.973c-1.131-2.844-3.884-4.729-6.973-4.729l-35.096,0.012c-3.078,0.001-5.843,1.883-6.974,4.746
	l-32.897,83.342v-80.618c0-4.142-3.356-7.499-7.498-7.5l-26.291-0.007c-0.001,0-0.001,0-0.001,0c-1.989,0-3.897,0.79-5.304,2.196
	c-2.875,2.873-2.197,3.146-2.197,31.696c-11.428-40.159-50.445-33.893-94.788-33.893c-4.143,0-7.5,3.357-7.5,7.5v93.03
	c0,4.143,3.357,7.5,7.5,7.5c55.002,0,69.583,2.962,86.18-14.569c3.682-3.866,6.632-9.749,8.608-16.819v23.888
	c0,4.143,3.357,7.5,7.5,7.5c28.52,0,28.788,0.666,31.648-2.25c2.922,2.945,3.595,2.217,31.234,2.217
	c3.179,0,6.013-2.004,7.071-5.001l4.037-11.426h32.713l3.778,11.305c1.022,3.06,3.888,5.122,7.113,5.122h28.124
	c2.486,0,4.811-1.231,6.206-3.289C512.102,460.218,512.388,457.603,511.47,455.293z M331.793,440.699
	c-10.78,11.387-17.712,9.897-67.801,9.897v-78.029c40.124,0,57.152-2.035,68.05,12.51c4.396,5.908,7.021,16.2,7.021,27.53
	C339.063,426.662,335.302,437.014,331.793,440.699z M377.57,450.596h-11.29V372.57l11.29,0.003V450.596z M481.778,450.563
	L478,439.259c-1.022-3.06-3.888-5.122-7.113-5.122h-43.421c-3.179,0-6.013,2.004-7.071,5.001l-4.037,11.426h-9.582l30.773-77.962
	l24.903-0.008l30.995,77.97H481.778z"/>
<path d="M7.5,465.597h26.508c4.142,0,7.5-3.357,7.5-7.5v-63.233c30,0.009,26.313-5.157,26.313,63.233c0,4.143,3.358,7.5,7.5,7.5
	h25.685c4.142,0,7.5-3.357,7.5-7.5v-51.469c0-2.506-0.103-4.92-0.309-7.239l19.674,61.011c1,3.099,3.883,5.198,7.138,5.198h37.869
	c3.249,0,6.128-2.092,7.132-5.182l26.676-82.052l0.01,79.734c0,4.142,3.358,7.499,7.5,7.499h26.273c4.142,0,7.5-3.357,7.5-7.5
	v-93.03c0-4.143-3.357-7.5-7.5-7.5c-28.028,0-28.95-0.717-31.816,2.435c-2.884-3.151-3.273-2.435-32.346-2.435
	c-3.318,0-6.243,2.181-7.188,5.361l-14.589,49.04l-13.947-48.949c-0.918-3.222-3.861-5.444-7.211-5.445l-28.361-0.007
	c-0.001,0-0.001,0-0.001,0c-5.087,0-8.698,4.967-7.139,9.803l2.678,8.305c-14.968-22.197-41.983-18.235-93.05-18.235
	c-4.142,0-7.5,3.357-7.5,7.5v93.159C0,462.239,3.358,465.597,7.5,465.597z M232.971,372.567v78.029h-11.273l-0.01-78.029
	L232.971,372.567L232.971,372.567z M127.71,372.573l19.454,68.276c0.914,3.207,3.835,5.426,7.169,5.445
	c3.295,0.049,6.282-2.166,7.232-5.361l20.338-68.366H192.8l-25.368,78.029h-26.959l-25.163-78.026L127.71,372.573z M15.001,372.439
	h39.683c23.967,0,38.821,5.719,38.821,34.19v43.969H82.821c0-37.23,1.785-52.874-7.874-63.161
	c-8.688-9.281-19.694-7.567-40.937-7.573h-0.001c-1.989,0-3.896,0.79-5.303,2.196c-1.407,1.406-2.197,3.314-2.197,5.304v63.234
	H15.001V372.439z"/>
<path d="M442.478,379.415l-16.418,43.556c-1.848,4.898,1.78,10.147,7.018,10.147h32.336c5.201,0,8.833-5.182,7.044-10.075
	l-15.918-43.556C454.151,372.951,444.911,372.951,442.478,379.415z M443.92,418.115l5.467-14.502l5.299,14.502H443.92z"/>
<path d="M293.85,377.824h-11.295c-4.143,0-7.5,3.357-7.5,7.5v52.912c0,4.143,3.357,7.5,7.5,7.5h11.295
	c22.241,0,34.49-12.061,34.49-33.96C328.34,389.883,316.091,377.824,293.85,377.824z M290.056,430.736v-37.911
	c13.535,0,23.283,1.309,23.283,18.952C313.339,430.012,302.694,430.736,290.056,430.736z"/>
<path d="M457.773,173.545c4.143,0,7.5-3.357,7.5-7.5V58.805c0-6.941-5.646-12.589-12.589-12.589h-103.9c-4.143,0-7.5,3.357-7.5,7.5
	s3.357,7.5,7.5,7.5h101.487v104.826C450.272,170.186,453.629,173.545,457.773,173.545z"/>
<path d="M209.883,328.244h242.802c6.941,0,12.589-5.646,12.589-12.589V201.046c0-4.143-3.357-7.5-7.5-7.5
	c-4.143,0-7.5,3.357-7.5,7.5v112.197H212.295v-15.697c56.268,3.138,163.553-25.954,214.321-64.123
	c3.266-2.455,5.135-6.361,4.999-10.448c-0.137-4.111-2.278-7.91-5.729-10.162c-5.476-3.572-13.172-7.819-20.614-11.928
	c-6.538-3.608-12.714-7.017-16.643-9.554c-4.729-3.054-10.773-2.648-15.042,1.004c-46.482,39.779-97.877,74.046-161.293,69.558
	v-6.889c57.269,5.584,115.832-38.92,153.945-82.213c4.099-4.656,4.155-11.739,0.133-16.474
	c-36.513-42.98-93.499-76.354-154.078-74.514V61.217h101.487c4.143,0,7.5-3.357,7.5-7.5s-3.357-7.5-7.5-7.5H209.883
	c-6.941,0-12.589,5.646-12.589,12.589v24.161c-79.407,9.655-145.461,73.444-148.311,76.231c-2.074,2.029-2.792,5.072-1.844,7.814
	c0.421,1.217,10.593,30.164,34.879,60.727c30.843,38.814,70.583,62.342,115.276,68.378v19.54
	C197.294,322.598,202.941,328.244,209.883,328.244z M212.295,140.279c2.036-0.122,3.952-0.179,5.805-0.167
	c27.883,0,47.857,16.074,56.536,24.66l-21.638,18.244c-11.571-19.354-19.311-30.847-40.703-35.154V140.279z M212.295,163.233
	c13.589,3.573,18.461,11.755,29.559,30.384c2.748,4.61,3.89,7.54,7.997,8.225c2.168,0.363,4.385-0.247,6.066-1.665l34.342-28.956
	c3.057-2.577,3.554-7.101,1.129-10.282c-1.115-1.462-27.84-35.827-73.282-35.827c-1.892,0.02-3.808,0.047-5.811,0.15v-8.865
	c50.843-1.547,88.052,36.333,99.297,49.337c-23.27,29.139-62.155,64.302-99.297,55.982L212.295,163.233L212.295,163.233z
	 M212.295,236.99c3.91,0.674,7.918,1.025,12.001,1.025c53.348,0,100.955-65.262,102.955-68.039c1.902-2.642,1.884-6.21-0.047-8.832
	c-1.858-2.521-46.15-61.528-114.909-59.749v-4.581c74.661-2.489,128.227,52.735,141.286,67.64
	c-34.509,38.441-89.406,81.319-141.286,75.458L212.295,236.99L212.295,236.99z M212.295,276.923
	c66.406,4.152,119.278-29.083,169.699-72.038c4.265,2.642,9.999,5.806,16.029,9.136c5.9,3.256,11.966,6.603,16.721,9.505
	C367.705,257.07,273.196,282.8,221.186,282.8c-2.874,0-5.804-0.098-8.892-0.286L212.295,276.923L212.295,276.923z M197.294,215.702
	c-17.805-10.674-26.786-30.307-29.925-38.618c5.023-4.906,16.317-14.312,29.925-15.485V215.702z M197.294,146.551
	c-25.232,1.497-43.398,22.854-44.236,23.856c-1.583,1.894-2.134,4.445-1.472,6.823c0.48,1.727,11.671,40.638,45.708,55.319v4.438
	c-30.617-8.775-52.294-34.52-62.593-63.477c7.7-7.212,29.947-25.537,62.593-31.46V146.551z M197.294,126.854
	c-47.306,7.561-75.483,38.204-76.711,39.564c-1.703,1.886-2.334,4.506-1.679,6.96c0.188,0.705,4.75,17.46,17.309,35.689
	c15.529,22.54,36.551,37.447,61.081,43.419v7.356c-45.584-9.391-78.024-48.734-93.425-89.866
	c8.283-10.375,39.784-45.235,93.425-52.363V126.854z M94.065,218.785c-17.406-21.802-27.256-43.157-30.992-52.187
	c14.471-12.993,70.604-59.982,134.222-68.514v4.381c-70.976,8.437-106.52,59.748-108.045,61.996
	c-1.279,1.888-1.63,4.256-0.954,6.434c0.299,0.964,7.54,23.896,25.21,48.334c22.217,30.727,51.076,49.941,83.788,55.888v5.871
	C157.034,275.097,122.34,254.2,94.065,218.785z"/>
<g>
</g>
<g>
</g>
<g>
</g>
<g>
</g>
<g>
</g>
<g>
</g>
<g>
</g>
<g>
</g>
<g>
</g>
<g>
</g>
<g>
</g>
<g>
</g>
<g>
</g>
<g>
</g>
<g>
</g>
</svg>
