<?xml version="1.0" encoding="iso-8859-1"?>
<!-- Generator: Adobe Illustrator 19.0.0, SVG Export Plug-In . SVG Version: 6.00 Build 0)  -->
<svg version="1.1" id="Capa_1" xmlns="http://www.w3.org/2000/svg" xmlns:xlink="http://www.w3.org/1999/xlink" x="0px" y="0px"
	 viewBox="0 0 512 512" style="enable-background:new 0 0 512 512;" xml:space="preserve">
<g>
	<g>
		<path d="M511.47,455.293l-36.959-92.973c-1.131-2.844-3.884-4.729-6.973-4.729l-35.096,0.012
			c-3.078,0.001-5.843,1.883-6.974,4.746l-32.897,83.342v-80.618c0-4.142-3.356-7.499-7.498-7.5l-26.291-0.007
			c-0.001,0-0.001,0-0.001,0c-1.989,0-3.897,0.79-5.304,2.196c-2.875,2.873-2.197,3.146-2.197,31.696
			c-11.428-40.159-50.445-33.893-94.788-33.893c-4.143,0-7.5,3.357-7.5,7.5v93.03c0,4.143,3.357,7.5,7.5,7.5
			c55.002,0,69.583,2.962,86.18-14.569c3.682-3.866,6.632-9.749,8.608-16.819v23.888c0,4.143,3.357,7.5,7.5,7.5
			c28.52,0,28.788,0.666,31.648-2.25c2.922,2.945,3.595,2.217,31.234,2.217c3.179,0,6.013-2.004,7.071-5.001l4.037-11.426h32.713
			l3.778,11.305c1.022,3.06,3.888,5.122,7.113,5.122h28.124c2.486,0,4.811-1.231,6.206-3.289
			C512.102,460.218,512.388,457.603,511.47,455.293z M331.793,440.699c-10.78,11.387-17.712,9.897-67.801,9.897v-78.029
			c40.124,0,57.152-2.035,68.05,12.51c4.396,5.908,7.021,16.2,7.021,27.53C339.063,426.662,335.302,437.014,331.793,440.699z
			 M377.57,450.596h-11.29V372.57l11.29,0.003V450.596z M481.778,450.563L478,439.259c-1.022-3.06-3.888-5.122-7.113-5.122h-43.421
			c-3.179,0-6.013,2.004-7.071,5.001l-4.037,11.426h-9.582l30.773-77.962l24.902-0.008l30.995,77.97H481.778z"/>
	</g>
</g>
<g>
	<g>
		<path d="M240.471,357.566c-28.028,0-28.95-0.717-31.816,2.435c-2.884-3.151-3.273-2.435-32.346-2.435
			c-3.318,0-6.243,2.181-7.188,5.361l-14.589,49.04l-13.947-48.949c-0.918-3.222-3.861-5.444-7.211-5.445l-28.361-0.007
			c-0.001,0-0.001,0-0.001,0c-5.087,0-8.698,4.967-7.139,9.803l2.678,8.305c-14.968-22.197-41.983-18.235-93.05-18.235
			c-4.142,0-7.5,3.357-7.5,7.5v93.159c0,4.142,3.358,7.5,7.5,7.5h26.508c4.142,0,7.5-3.357,7.5-7.5v-63.233
			c30,0.009,26.313-5.157,26.313,63.233c0,4.143,3.358,7.5,7.5,7.5h25.685c4.142,0,7.5-3.357,7.5-7.5v-51.469
			c0-2.506-0.103-4.92-0.309-7.239l19.674,61.011c1,3.099,3.883,5.198,7.138,5.198h37.869c3.249,0,6.128-2.092,7.132-5.182
			l26.676-82.052l0.01,79.734c0,4.142,3.358,7.499,7.5,7.499h26.273c4.142,0,7.5-3.357,7.5-7.5v-93.03
			C247.971,360.923,244.614,357.566,240.471,357.566z M93.506,450.597H82.821c0-37.23,1.785-52.874-7.875-63.161
			c-8.688-9.281-19.694-7.567-40.938-7.573h-0.001c-1.989,0-3.896,0.79-5.303,2.196c-1.407,1.406-2.197,3.314-2.197,5.304v63.234
			H15.001v-78.159h39.683c23.967,0,38.821,5.719,38.821,34.19V450.597z M167.432,450.595h-26.959l-25.163-78.026l12.399,0.003
			l19.454,68.276c0.914,3.207,3.835,5.426,7.169,5.445c3.295,0.049,6.282-2.166,7.232-5.361l20.338-68.366H192.8L167.432,450.595z
			 M232.971,450.595h-11.273l-0.01-78.029h11.283V450.595z"/>
	</g>
</g>
<g>
	<g>
		<path d="M472.459,423.043l-15.918-43.556c-2.389-6.536-11.63-6.536-14.063-0.072l-16.418,43.556
			c-1.848,4.898,1.78,10.147,7.018,10.147h32.336C470.615,433.117,474.247,427.935,472.459,423.043z M443.92,418.115l5.467-14.502
			l5.299,14.502H443.92z"/>
	</g>
</g>
<g>
	<g>
		<path d="M293.85,377.824h-11.295c-4.143,0-7.5,3.357-7.5,7.5v52.912c0,4.143,3.357,7.5,7.5,7.5h11.295
			c22.241,0,34.49-12.061,34.49-33.96C328.34,389.883,316.091,377.824,293.85,377.824z M290.056,430.736v-37.911
			c13.535,0,23.283,1.309,23.283,18.952C313.339,430.012,302.694,430.736,290.056,430.736z"/>
	</g>
</g>
<g>
	<g>
		<path d="M452.684,46.216h-103.9c-4.143,0-7.5,3.357-7.5,7.5s3.357,7.5,7.5,7.5h101.487v104.826
			c0.001,4.143,3.358,7.501,7.501,7.501s7.5-3.357,7.5-7.5V58.805C465.273,51.863,459.627,46.216,452.684,46.216z"/>
	</g>
</g>
<g>
	<g>
		<path d="M457.773,193.546c-4.143,0-7.5,3.357-7.5,7.5v112.197H212.295v-15.697c56.268,3.138,163.553-25.954,214.321-64.123
			c3.266-2.455,5.135-6.361,4.999-10.448c-0.137-4.111-2.278-7.91-5.729-10.162c-5.476-3.572-13.172-7.819-20.614-11.928
			c-6.538-3.608-12.714-7.017-16.643-9.554c-4.729-3.054-10.773-2.648-15.042,1.004c-46.482,39.779-97.877,74.046-161.293,69.558
			v-6.889c57.269,5.584,115.832-38.92,153.945-82.213c4.099-4.656,4.155-11.739,0.133-16.474
			c-36.513-42.98-93.499-76.354-154.078-74.513V61.217h101.487c4.143,0,7.5-3.357,7.5-7.5s-3.357-7.5-7.5-7.5H209.883
			c-6.941,0-12.589,5.646-12.589,12.589v24.161c-79.407,9.655-145.461,73.444-148.311,76.231c-2.074,2.029-2.792,5.072-1.844,7.815
			c0.421,1.217,10.593,30.164,34.879,60.727c30.843,38.814,70.583,62.342,115.276,68.378v19.54c0,6.941,5.647,12.588,12.589,12.588
			h242.802c6.941,0,12.589-5.646,12.589-12.589V201.046C465.273,196.903,461.916,193.546,457.773,193.546z M212.295,276.923
			c66.406,4.152,119.278-29.083,169.699-72.038c4.265,2.642,9.999,5.806,16.029,9.136c5.9,3.256,11.966,6.603,16.721,9.505
			C367.705,257.07,273.196,282.8,221.186,282.8c-2.874,0-5.804-0.098-8.892-0.286V276.923z M212.295,163.233L212.295,163.233
			c13.589,3.573,18.461,11.755,29.559,30.384c2.748,4.61,3.89,7.54,7.997,8.224c2.168,0.363,4.385-0.247,6.066-1.665l34.342-28.956
			c3.057-2.577,3.554-7.101,1.129-10.282c-1.115-1.462-27.84-35.827-73.282-35.827c-1.892,0.02-3.808,0.047-5.811,0.15v-8.865
			c50.843-1.547,88.052,36.333,99.297,49.337c-23.27,29.139-62.155,64.302-99.297,55.982V163.233z M212.295,147.862v-7.583
			c2.036-0.122,3.952-0.179,5.805-0.167c27.883,0,47.857,16.074,56.536,24.66l-21.638,18.244
			C241.428,163.662,233.687,152.169,212.295,147.862z M212.295,236.99L212.295,236.99c3.91,0.674,7.919,1.025,12.001,1.025
			c53.348,0,100.955-65.262,102.955-68.039c1.902-2.642,1.884-6.21-0.047-8.832c-1.858-2.521-46.15-61.528-114.909-59.749v-4.581
			c74.661-2.489,128.227,52.735,141.286,67.64c-34.509,38.441-89.406,81.319-141.286,75.458V236.99z M197.294,215.702
			c-17.805-10.674-26.786-30.307-29.925-38.618c5.023-4.906,16.317-14.312,29.925-15.485V215.702z M197.294,146.551
			c-25.232,1.497-43.398,22.854-44.236,23.856c-1.583,1.894-2.134,4.445-1.472,6.823c0.48,1.727,11.671,40.638,45.708,55.319v4.438
			c-30.617-8.775-52.294-34.52-62.593-63.477c7.7-7.212,29.947-25.537,62.593-31.46V146.551z M197.294,126.854
			c-47.306,7.561-75.483,38.204-76.711,39.564c-1.703,1.886-2.334,4.506-1.679,6.96c0.188,0.705,4.75,17.46,17.309,35.689
			c15.529,22.54,36.551,37.447,61.081,43.419v7.356c-45.584-9.391-78.024-48.734-93.425-89.866
			c8.283-10.375,39.784-45.235,93.425-52.363V126.854z M197.295,102.465c-70.976,8.436-106.52,59.748-108.044,61.996
			c-1.279,1.888-1.63,4.256-0.954,6.434c0.299,0.964,7.54,23.896,25.21,48.334c22.217,30.727,51.076,49.941,83.788,55.888v5.871
			c-40.26-5.892-74.954-26.789-103.229-62.204c-17.406-21.802-27.256-43.157-30.992-52.187
			c14.471-12.993,70.604-59.982,134.222-68.514V102.465z"/>
	</g>
</g>
<g>
</g>
<g>
</g>
<g>
</g>
<g>
</g>
<g>
</g>
<g>
</g>
<g>
</g>
<g>
</g>
<g>
</g>
<g>
</g>
<g>
</g>
<g>
</g>
<g>
</g>
<g>
</g>
<g>
</g>
</svg>
